<svg xmlns="http://www.w3.org/2000/svg" xmlns:xlink="http://www.w3.org/1999/xlink" width="100" zoomAndPan="magnify" viewBox="0 0 75 74.999997" height="100" preserveAspectRatio="xMidYMid meet" version="1.0"><defs><clipPath id="87d508af65"><path d="M 19 16.167969 L 67.152344 16.167969 L 67.152344 64.917969 L 19 64.917969 Z M 19 16.167969 " clip-rule="nonzero"/></clipPath><clipPath id="7541f8fd75"><path d="M 7.902344 19 L 22 19 L 22 42 L 7.902344 42 Z M 7.902344 19 " clip-rule="nonzero"/></clipPath></defs><rect x="-7.5" width="90" fill="#ffffff" y="-7.5" height="89.999996" fill-opacity="1"/><rect x="-7.5" width="90" fill="#ffffff" y="-7.5" height="89.999996" fill-opacity="1"/><rect x="-7.5" width="90" fill="#ffffff" y="-7.5" height="89.999996" fill-opacity="1"/><g clip-path="url(#87d508af65)"><path fill="#ff914d" d="M 67.0625 30.464844 C 67.0625 29.792969 66.773438 29.164062 66.269531 28.738281 C 65.324219 27.921875 63.898438 28.035156 63.085938 28.988281 L 61.304688 31.085938 C 60.847656 30.941406 60.300781 31.0625 59.984375 31.441406 C 59.703125 31.773438 59.613281 32.238281 59.757812 32.660156 C 59.777344 32.710938 59.800781 32.769531 59.824219 32.828125 L 58.0625 34.898438 L 58.0625 16.640625 C 58.0625 16.378906 57.851562 16.167969 57.59375 16.167969 L 26.164062 16.167969 C 25.90625 16.167969 25.695312 16.378906 25.695312 16.640625 L 25.695312 27.890625 L 22.953125 29.992188 C 22.835938 30.082031 22.765625 30.222656 22.765625 30.367188 C 22.765625 30.515625 22.835938 30.65625 22.953125 30.742188 L 25.695312 32.847656 L 25.695312 59.550781 L 19.890625 59.550781 C 19.628906 59.550781 19.421875 59.765625 19.421875 60.023438 C 19.421875 62.722656 21.601562 64.917969 24.28125 64.917969 L 55.625 64.917969 C 56.96875 64.917969 58.0625 63.816406 58.0625 62.460938 L 58.0625 41.890625 L 58.523438 41.347656 C 58.613281 41.515625 58.730469 41.671875 58.878906 41.804688 C 59.164062 42.046875 59.515625 42.167969 59.863281 42.167969 C 60.273438 42.167969 60.675781 42 60.960938 41.667969 L 65.0625 36.835938 C 65.328125 36.519531 65.449219 36.121094 65.398438 35.710938 C 65.351562 35.339844 65.164062 34.992188 64.882812 34.710938 C 64.902344 34.476562 64.851562 34.242188 64.746094 34.035156 L 66.519531 31.9375 C 66.867188 31.53125 67.0625 31.003906 67.0625 30.464844 Z M 58.683594 39.710938 C 58.679688 39.714844 58.675781 39.71875 58.671875 39.722656 L 49.671875 50.320312 C 48.609375 50.015625 48.011719 49.40625 47.804688 48.429688 L 60.285156 33.734375 C 60.503906 34.082031 60.78125 34.449219 61.148438 34.769531 C 61.515625 35.082031 61.917969 35.300781 62.292969 35.460938 Z M 46.492188 53.324219 C 45.898438 53.089844 45.46875 52.730469 45.195312 52.246094 C 45.449219 51.746094 45.710938 51.269531 45.929688 50.886719 C 46.097656 51.195312 46.332031 51.527344 46.664062 51.8125 C 47 52.097656 47.363281 52.28125 47.691406 52.402344 C 47.355469 52.675781 46.933594 53.003906 46.492188 53.324219 Z M 20.386719 60.496094 L 53.183594 60.496094 L 53.183594 62.460938 C 53.183594 63.023438 53.378906 63.554688 53.714844 63.976562 L 24.28125 63.976562 C 22.277344 63.976562 20.617188 62.453125 20.386719 60.496094 Z M 57.125 62.460938 C 57.125 63.296875 56.449219 63.976562 55.625 63.976562 C 55.507812 63.976562 55.382812 63.957031 55.238281 63.914062 C 55.238281 63.914062 55.234375 63.914062 55.234375 63.914062 C 55.234375 63.914062 55.234375 63.910156 55.230469 63.910156 C 54.578125 63.730469 54.121094 63.136719 54.121094 62.460938 L 54.121094 60.023438 C 54.121094 59.765625 53.910156 59.550781 53.652344 59.550781 L 26.632812 59.550781 L 26.632812 32.613281 C 26.632812 32.464844 26.566406 32.328125 26.449219 32.238281 L 24.007812 30.367188 L 26.449219 28.5 C 26.566406 28.410156 26.632812 28.273438 26.632812 28.125 L 26.632812 17.109375 L 57.125 17.109375 L 57.125 36.003906 L 52.554688 41.382812 L 32.074219 41.382812 C 31.8125 41.382812 31.605469 41.59375 31.605469 41.855469 C 31.605469 42.113281 31.8125 42.324219 32.074219 42.324219 L 51.753906 42.324219 L 48.34375 46.34375 L 32.074219 46.34375 C 31.8125 46.34375 31.605469 46.554688 31.605469 46.8125 C 31.605469 47.074219 31.8125 47.285156 32.074219 47.285156 L 47.542969 47.285156 L 45.65625 49.507812 C 45.648438 49.515625 45.640625 49.53125 45.632812 49.542969 C 45.628906 49.546875 45.625 49.546875 45.625 49.550781 C 45.621094 49.554688 45.617188 49.558594 45.613281 49.566406 C 45.585938 49.613281 44.863281 50.789062 44.242188 52.050781 C 43.296875 53.972656 43.125 54.9375 43.636719 55.378906 C 43.78125 55.503906 43.957031 55.566406 44.171875 55.566406 C 44.730469 55.566406 45.5625 55.144531 46.824219 54.246094 C 47.957031 53.4375 48.996094 52.546875 49.039062 52.507812 C 49.042969 52.503906 49.046875 52.5 49.054688 52.492188 C 49.058594 52.488281 49.058594 52.488281 49.0625 52.484375 C 49.070312 52.476562 49.082031 52.46875 49.089844 52.457031 L 50.164062 51.191406 C 50.167969 51.1875 50.171875 51.183594 50.175781 51.179688 L 57.125 42.996094 Z M 64.347656 36.226562 L 60.246094 41.054688 C 60.0625 41.269531 59.722656 41.285156 59.488281 41.085938 C 59.355469 40.972656 59.28125 40.808594 59.28125 40.640625 C 59.28125 40.5625 59.300781 40.441406 59.367188 40.355469 L 59.382812 40.335938 C 59.386719 40.335938 59.386719 40.332031 59.386719 40.332031 C 59.386719 40.328125 59.390625 40.328125 59.394531 40.324219 L 63.257812 35.777344 C 63.320312 35.792969 63.378906 35.804688 63.433594 35.816406 C 63.511719 35.832031 63.585938 35.835938 63.664062 35.835938 C 63.921875 35.835938 64.175781 35.753906 64.386719 35.601562 C 64.425781 35.675781 64.457031 35.753906 64.46875 35.832031 C 64.484375 35.976562 64.445312 36.109375 64.347656 36.226562 Z M 65.804688 31.328125 L 64.023438 33.429688 C 63.550781 33.265625 63.152344 33.042969 62.835938 32.773438 C 62.523438 32.503906 62.246094 32.144531 62.011719 31.707031 L 63.800781 29.601562 C 64.273438 29.042969 65.109375 28.976562 65.664062 29.457031 C 65.957031 29.703125 66.125 30.070312 66.125 30.464844 C 66.125 30.785156 66.015625 31.082031 65.804688 31.328125 Z M 65.804688 31.328125 " fill-opacity="1" fill-rule="nonzero"/></g><g clip-path="url(#7541f8fd75)"><path fill="#ff914d" d="M 21.960938 30.367188 C 21.960938 27.859375 20.753906 25.851562 19.132812 25.523438 L 19.132812 19.78125 C 19.132812 19.597656 19.03125 19.429688 18.867188 19.351562 C 18.703125 19.273438 18.507812 19.300781 18.367188 19.414062 L 11.203125 25.316406 L 8.464844 25.316406 C 8.207031 25.316406 7.996094 25.527344 7.996094 25.785156 L 7.996094 34.953125 C 7.996094 35.210938 8.207031 35.421875 8.464844 35.421875 L 11.203125 35.421875 L 18.367188 41.324219 C 18.453125 41.394531 18.558594 41.429688 18.664062 41.429688 C 18.734375 41.429688 18.800781 41.414062 18.867188 41.382812 C 19.03125 41.304688 19.132812 41.140625 19.132812 40.957031 L 19.132812 35.214844 C 20.753906 34.886719 21.960938 32.878906 21.960938 30.367188 Z M 18.195312 39.960938 L 11.839844 34.726562 L 11.839844 26.007812 L 18.195312 20.773438 Z M 18.195312 39.960938 " fill-opacity="1" fill-rule="nonzero"/></g><path fill="#ff914d" d="M 51.730469 24.066406 L 54.863281 24.066406 C 55.125 24.066406 55.332031 23.855469 55.332031 23.59375 C 55.332031 23.332031 55.125 23.121094 54.863281 23.121094 L 51.730469 23.121094 C 51.46875 23.121094 51.261719 23.332031 51.261719 23.59375 C 51.261719 23.855469 51.46875 24.066406 51.730469 24.066406 Z M 51.730469 24.066406 " fill-opacity="1" fill-rule="nonzero"/><path fill="#ff914d" d="M 32.074219 24.066406 L 49.421875 24.066406 C 49.679688 24.066406 49.890625 23.855469 49.890625 23.59375 C 49.890625 23.332031 49.679688 23.121094 49.421875 23.121094 L 32.074219 23.121094 C 31.8125 23.121094 31.605469 23.332031 31.605469 23.59375 C 31.605469 23.855469 31.8125 24.066406 32.074219 24.066406 Z M 32.074219 24.066406 " fill-opacity="1" fill-rule="nonzero"/><path fill="#ff914d" d="M 54.863281 27.765625 L 38.203125 27.765625 C 37.945312 27.765625 37.734375 27.976562 37.734375 28.238281 C 37.734375 28.496094 37.945312 28.710938 38.203125 28.710938 L 54.863281 28.710938 C 55.125 28.710938 55.332031 28.496094 55.332031 28.238281 C 55.332031 27.976562 55.125 27.765625 54.863281 27.765625 Z M 54.863281 27.765625 " fill-opacity="1" fill-rule="nonzero"/><path fill="#ff914d" d="M 32.074219 28.710938 L 36.070312 28.710938 C 36.332031 28.710938 36.539062 28.496094 36.539062 28.238281 C 36.539062 27.976562 36.332031 27.765625 36.070312 27.765625 L 32.074219 27.765625 C 31.8125 27.765625 31.605469 27.976562 31.605469 28.238281 C 31.605469 28.496094 31.8125 28.710938 32.074219 28.710938 Z M 32.074219 28.710938 " fill-opacity="1" fill-rule="nonzero"/><path fill="#ff914d" d="M 32.074219 33.351562 L 54.863281 33.351562 C 55.125 33.351562 55.332031 33.140625 55.332031 32.882812 C 55.332031 32.621094 55.125 32.410156 54.863281 32.410156 L 32.074219 32.410156 C 31.8125 32.410156 31.605469 32.621094 31.605469 32.882812 C 31.605469 33.140625 31.8125 33.351562 32.074219 33.351562 Z M 32.074219 33.351562 " fill-opacity="1" fill-rule="nonzero"/><path fill="#ff914d" d="M 32.074219 37.582031 L 54.863281 37.582031 C 55.125 37.582031 55.332031 37.371094 55.332031 37.109375 C 55.332031 36.851562 55.125 36.640625 54.863281 36.640625 L 32.074219 36.640625 C 31.8125 36.640625 31.605469 36.851562 31.605469 37.109375 C 31.605469 37.371094 31.8125 37.582031 32.074219 37.582031 Z M 32.074219 37.582031 " fill-opacity="1" fill-rule="nonzero"/><path fill="#ff914d" d="M 43.875 51.457031 C 43.875 51.199219 43.667969 50.984375 43.40625 50.984375 L 32.074219 50.984375 C 31.8125 50.984375 31.605469 51.199219 31.605469 51.457031 C 31.605469 51.71875 31.8125 51.929688 32.074219 51.929688 L 43.40625 51.929688 C 43.667969 51.929688 43.875 51.71875 43.875 51.457031 Z M 43.875 51.457031 " fill-opacity="1" fill-rule="nonzero"/></svg>