<svg xmlns="http://www.w3.org/2000/svg" xmlns:xlink="http://www.w3.org/1999/xlink" width="100" zoomAndPan="magnify" viewBox="0 0 75 74.999997" height="100" preserveAspectRatio="xMidYMid meet" version="1.0"><defs><clipPath id="288f8e7dee"><path d="M 15 9.816406 L 62 9.816406 L 62 65 L 15 65 Z M 15 9.816406 " clip-rule="nonzero"/></clipPath></defs><rect x="-7.5" width="90" fill="#ffffff" y="-7.5" height="89.999996" fill-opacity="1"/><rect x="-7.5" width="90" fill="#ffffff" y="-7.5" height="89.999996" fill-opacity="1"/><rect x="-7.5" width="90" fill="#ffffff" y="-7.5" height="89.999996" fill-opacity="1"/><g clip-path="url(#288f8e7dee)"><path fill="#ff914d" d="M 36.78125 9.777344 C 36.203125 9.777344 35.628906 9.789062 35.058594 9.828125 C 28.183594 10.304688 21.792969 14.113281 18.203125 20.316406 C 13.417969 28.589844 14.511719 38.894531 21.558594 45.761719 C 24.949219 49.066406 24.007812 52.398438 23.320312 56.71875 C 23.066406 58.300781 23.886719 59.613281 25.910156 60.890625 C 29.996094 63.46875 37.363281 65.246094 42.59375 64.582031 C 44.375 64.359375 45.429688 63.476562 45.757812 61.394531 C 46.136719 58.96875 46.414062 57.429688 49.390625 57.480469 C 52.144531 57.527344 54.71875 57.855469 55.117188 54.105469 C 55.210938 53.238281 55.148438 52.894531 55.867188 51.964844 C 57.113281 50.355469 57.414062 49.519531 56.367188 48.476562 C 56.917969 48.476562 58.492188 47.6875 57.8125 46.519531 L 56.558594 44.375 C 56.1875 43.742188 56.820312 43.484375 57.144531 43.339844 L 60.632812 41.773438 C 61.464844 41.398438 61.789062 40.25 61.195312 39.527344 C 59.550781 37.515625 57.886719 35.878906 56.910156 33.65625 C 55.75 31.015625 57.304688 30.457031 57.3125 27.578125 C 57.324219 23.09375 54.882812 19.503906 52.324219 16.789062 C 48.109375 12.308594 42.640625 9.777344 36.78125 9.777344 Z M 36.683594 12.421875 C 37.007812 12.425781 37.328125 12.632812 37.304688 13.023438 L 37.117188 16.179688 C 37.082031 16.769531 36.257812 16.785156 36.226562 16.179688 L 36.058594 13.023438 C 36.035156 12.613281 36.363281 12.417969 36.683594 12.421875 Z M 30.152344 13.683594 C 30.390625 13.671875 30.628906 13.78125 30.726562 14.058594 L 31.78125 17.050781 C 31.980469 17.605469 31.222656 17.929688 30.957031 17.382812 L 29.570312 14.523438 C 29.347656 14.0625 29.753906 13.703125 30.152344 13.683594 Z M 43.378906 13.75 C 43.777344 13.777344 44.179688 14.136719 43.949219 14.597656 L 42.535156 17.441406 C 42.261719 17.984375 41.507812 17.65625 41.710938 17.101562 L 42.800781 14.121094 C 42.902344 13.84375 43.140625 13.738281 43.378906 13.75 Z M 24.539062 17.335938 C 24.695312 17.324219 24.855469 17.375 24.988281 17.523438 L 27.144531 19.882812 C 27.546875 20.324219 26.972656 20.90625 26.515625 20.503906 L 24.109375 18.390625 C 23.640625 17.976562 24.070312 17.367188 24.539062 17.335938 Z M 48.859375 17.367188 C 49.328125 17.402344 49.753906 18.015625 49.285156 18.425781 L 46.875 20.53125 C 46.414062 20.933594 45.84375 20.351562 46.246094 19.910156 L 48.40625 17.558594 C 48.539062 17.410156 48.703125 17.359375 48.859375 17.367188 Z M 36.683594 19.496094 C 42.464844 19.496094 47.09375 23.789062 47.09375 29.042969 C 47.09375 31.96875 45.886719 34.042969 44.566406 35.972656 C 43.011719 38.238281 40.675781 39.886719 38.289062 40.355469 L 38.289062 31.746094 L 39.730469 31.746094 C 40.699219 31.746094 41.574219 31.164062 41.945312 30.277344 C 42.316406 29.386719 42.109375 28.363281 41.425781 27.683594 C 40.742188 27.003906 39.710938 26.796875 38.816406 27.164062 C 37.921875 27.53125 37.332031 28.40625 37.332031 29.367188 L 37.332031 30.792969 L 36.03125 30.792969 L 36.03125 29.367188 C 36.03125 28.40625 35.445312 27.53125 34.550781 27.164062 C 33.65625 26.796875 32.625 27.003906 31.9375 27.683594 C 31.253906 28.363281 31.046875 29.386719 31.417969 30.277344 C 31.789062 31.164062 32.664062 31.746094 33.632812 31.746094 L 35.074219 31.746094 L 35.074219 40.351562 C 32.15625 39.84375 30.328125 38.050781 28.800781 35.972656 C 27.417969 34.085938 26.269531 31.96875 26.269531 29.042969 C 26.269531 23.789062 30.90625 19.496094 36.683594 19.496094 Z M 20.832031 22.757812 C 20.914062 22.757812 21 22.777344 21.089844 22.820312 L 24 24.195312 C 24.542969 24.453125 24.246094 25.207031 23.660156 25.003906 L 20.613281 23.949219 C 19.921875 23.707031 20.253906 22.765625 20.832031 22.757812 Z M 52.546875 22.804688 C 53.125 22.808594 53.453125 23.757812 52.761719 23.996094 L 49.710938 25.042969 C 49.128906 25.242188 48.828125 24.488281 49.371094 24.234375 L 52.285156 22.863281 C 52.375 22.820312 52.464844 22.804688 52.546875 22.804688 Z M 33.558594 27.941406 C 33.765625 27.929688 33.980469 27.964844 34.183594 28.046875 C 34.726562 28.269531 35.074219 28.789062 35.074219 29.367188 L 35.074219 30.792969 L 33.632812 30.792969 C 33.046875 30.792969 32.523438 30.449219 32.300781 29.914062 C 32.078125 29.378906 32.203125 28.765625 32.613281 28.355469 C 32.871094 28.097656 33.207031 27.957031 33.558594 27.941406 Z M 39.804688 27.941406 C 40.15625 27.957031 40.492188 28.101562 40.75 28.355469 C 41.164062 28.765625 41.285156 29.378906 41.0625 29.914062 C 40.839844 30.449219 40.316406 30.792969 39.730469 30.792969 L 38.289062 30.792969 L 38.289062 29.367188 C 38.289062 28.789062 38.636719 28.269531 39.179688 28.046875 C 39.382812 27.960938 39.597656 27.929688 39.804688 27.941406 Z M 36.03125 31.746094 L 37.332031 31.746094 L 37.335938 40.484375 C 36.894531 40.535156 36.457031 40.5 36.027344 40.484375 Z M 33.015625 40.789062 C 33.070312 40.792969 33.132812 40.808594 33.1875 40.839844 C 34.246094 41.25 35.425781 41.503906 36.683594 41.503906 C 37.886719 41.503906 39.015625 41.269531 40.035156 40.894531 C 40.476562 40.640625 40.835938 40.996094 40.527344 41.527344 C 39.875 42.566406 38.738281 43.574219 36.683594 43.574219 C 36.304688 43.574219 35.960938 43.539062 35.632812 43.507812 C 35.152344 43.457031 35.121094 43.980469 35.464844 44.113281 C 36.820312 44.621094 37.957031 44.429688 39.324219 43.789062 C 39.902344 43.453125 39.949219 43.796875 39.730469 44.300781 C 39.175781 45.402344 38.402344 46.179688 36.683594 46.179688 C 34.773438 46.179688 33.242188 44.558594 33.097656 42.375 C 33 42.269531 32.910156 42.160156 32.828125 42.042969 C 32.230469 41.445312 32.613281 40.777344 33.015625 40.789062 Z M 33.015625 40.789062 " fill-opacity="1" fill-rule="evenodd"/></g></svg>