<svg xmlns="http://www.w3.org/2000/svg" xmlns:xlink="http://www.w3.org/1999/xlink" width="100" zoomAndPan="magnify" viewBox="0 0 75 74.999997" height="100" preserveAspectRatio="xMidYMid meet" version="1.0"><rect x="-7.5" width="90" fill="#ffffff" y="-7.5" height="89.999996" fill-opacity="1"/><rect x="-7.5" width="90" fill="#ffffff" y="-7.5" height="89.999996" fill-opacity="1"/><rect x="-7.5" width="90" fill="#ffffff" y="-7.5" height="89.999996" fill-opacity="1"/><path fill="#f2a130" d="M 47.113281 38.691406 C 47.113281 38.109375 47.0625 37.535156 46.960938 36.960938 C 46.855469 36.390625 46.703125 35.832031 46.5 35.289062 C 46.300781 34.742188 46.050781 34.222656 45.753906 33.722656 C 45.457031 33.222656 45.121094 32.753906 44.738281 32.3125 C 44.359375 31.875 43.945312 31.472656 43.492188 31.105469 C 43.039062 30.742188 42.558594 30.421875 42.050781 30.140625 C 41.539062 29.863281 41.011719 29.632812 40.460938 29.449219 C 39.910156 29.261719 39.34375 29.128906 38.769531 29.046875 C 38.195312 28.964844 37.617188 28.933594 37.039062 28.953125 C 36.457031 28.972656 35.882812 29.042969 35.316406 29.167969 C 34.746094 29.289062 34.195312 29.460938 33.660156 29.683594 C 33.121094 29.90625 32.609375 30.171875 32.121094 30.488281 C 31.632812 30.800781 31.175781 31.15625 30.75 31.550781 C 30.324219 31.945312 29.9375 32.375 29.585938 32.839844 C 29.238281 33.304688 28.933594 33.796875 28.675781 34.316406 C 28.414062 34.835938 28.199219 35.371094 28.035156 35.929688 C 27.871094 36.488281 27.757812 37.054688 27.695312 37.632812 C 27.632812 38.207031 27.621094 38.785156 27.664062 39.367188 C 27.703125 39.945312 27.796875 40.515625 27.9375 41.078125 C 28.082031 41.640625 28.273438 42.1875 28.515625 42.71875 C 28.753906 43.246094 29.039062 43.75 29.371094 44.226562 C 29.703125 44.703125 30.070312 45.148438 30.480469 45.558594 C 30.890625 45.96875 31.335938 46.34375 31.8125 46.671875 C 32.289062 47.003906 32.789062 47.292969 33.320312 47.535156 L 33.320312 51.671875 C 33.320312 51.9375 33.34375 52.203125 33.398438 52.464844 C 33.449219 52.726562 33.527344 52.980469 33.628906 53.226562 C 33.730469 53.472656 33.855469 53.707031 34.003906 53.925781 C 34.152344 54.148438 34.320312 54.351562 34.507812 54.542969 C 34.695312 54.730469 34.902344 54.898438 35.121094 55.046875 C 35.34375 55.195312 35.578125 55.320312 35.824219 55.421875 C 36.070312 55.523438 36.324219 55.601562 36.585938 55.652344 C 36.84375 55.703125 37.109375 55.730469 37.375 55.730469 C 37.640625 55.730469 37.90625 55.703125 38.167969 55.652344 C 38.429688 55.601562 38.683594 55.523438 38.929688 55.421875 C 39.175781 55.320312 39.410156 55.195312 39.628906 55.046875 C 39.851562 54.898438 40.054688 54.730469 40.246094 54.542969 C 40.433594 54.351562 40.601562 54.148438 40.75 53.925781 C 40.898438 53.707031 41.023438 53.472656 41.125 53.226562 C 41.226562 52.980469 41.304688 52.726562 41.355469 52.464844 C 41.40625 52.203125 41.433594 51.9375 41.433594 51.671875 L 41.433594 47.535156 C 42.28125 47.148438 43.054688 46.648438 43.757812 46.035156 C 44.460938 45.425781 45.066406 44.730469 45.570312 43.945312 C 46.070312 43.160156 46.457031 42.320312 46.71875 41.429688 C 46.980469 40.535156 47.113281 39.621094 47.113281 38.691406 Z M 47.113281 38.691406 " fill-opacity="1" fill-rule="nonzero"/><path fill="#f2f2f2" d="M 42.773438 40.027344 L 42.4375 39.84375 C 42.226562 39.730469 42.132812 39.554688 42.15625 39.316406 C 42.21875 38.898438 42.21875 38.480469 42.15625 38.066406 C 42.132812 37.824219 42.226562 37.648438 42.4375 37.539062 L 42.773438 37.351562 C 42.90625 37.277344 42.992188 37.167969 43.035156 37.023438 C 43.074219 36.875 43.058594 36.738281 42.984375 36.605469 L 42.066406 35.097656 C 41.984375 34.953125 41.863281 34.863281 41.703125 34.824219 C 41.542969 34.785156 41.394531 34.808594 41.253906 34.894531 L 40.921875 35.078125 C 40.691406 35.195312 40.472656 35.179688 40.265625 35.023438 C 39.933594 34.78125 39.578125 34.585938 39.203125 34.429688 C 38.960938 34.34375 38.839844 34.171875 38.828125 33.917969 L 38.828125 33.554688 C 38.824219 33.398438 38.769531 33.269531 38.65625 33.164062 C 38.546875 33.058594 38.414062 33.007812 38.261719 33.011719 L 36.460938 33.011719 C 36.304688 33.007812 36.171875 33.058594 36.0625 33.164062 C 35.949219 33.269531 35.894531 33.398438 35.890625 33.554688 L 35.890625 33.917969 C 35.882812 34.171875 35.757812 34.34375 35.519531 34.429688 C 35.140625 34.585938 34.785156 34.78125 34.453125 35.023438 C 34.246094 35.179688 34.027344 35.195312 33.796875 35.078125 L 33.464844 34.894531 C 33.324219 34.808594 33.175781 34.785156 33.015625 34.824219 C 32.855469 34.863281 32.734375 34.953125 32.652344 35.097656 L 31.738281 36.605469 C 31.660156 36.738281 31.644531 36.875 31.683594 37.023438 C 31.726562 37.167969 31.8125 37.277344 31.949219 37.351562 L 32.28125 37.539062 C 32.492188 37.648438 32.589844 37.824219 32.5625 38.066406 C 32.5 38.480469 32.5 38.898438 32.5625 39.316406 C 32.589844 39.554688 32.492188 39.730469 32.28125 39.84375 L 31.949219 40.027344 C 31.8125 40.101562 31.726562 40.210938 31.683594 40.359375 C 31.644531 40.503906 31.660156 40.644531 31.738281 40.777344 L 32.652344 42.285156 C 32.734375 42.425781 32.855469 42.515625 33.015625 42.558594 C 33.175781 42.597656 33.324219 42.574219 33.464844 42.488281 L 33.796875 42.300781 C 34.027344 42.183594 34.246094 42.203125 34.453125 42.359375 C 34.785156 42.597656 35.140625 42.796875 35.519531 42.949219 C 35.757812 43.039062 35.882812 43.207031 35.890625 43.460938 L 35.890625 43.828125 C 35.894531 43.980469 35.949219 44.109375 36.0625 44.21875 C 36.171875 44.324219 36.304688 44.375 36.460938 44.371094 L 38.292969 44.371094 C 38.445312 44.375 38.578125 44.324219 38.691406 44.21875 C 38.800781 44.109375 38.859375 43.980469 38.859375 43.828125 L 38.859375 43.460938 C 38.871094 43.207031 38.996094 43.039062 39.234375 42.949219 C 39.613281 42.796875 39.964844 42.597656 40.296875 42.359375 C 40.503906 42.203125 40.722656 42.183594 40.953125 42.300781 L 41.285156 42.488281 C 41.425781 42.574219 41.574219 42.597656 41.734375 42.558594 C 41.894531 42.515625 42.015625 42.425781 42.097656 42.285156 L 43.015625 40.777344 C 43.089844 40.640625 43.101562 40.496094 43.054688 40.351562 C 43.003906 40.203125 42.910156 40.097656 42.773438 40.027344 Z M 37.375 40.515625 C 37.132812 40.515625 36.902344 40.46875 36.675781 40.378906 C 36.453125 40.285156 36.257812 40.152344 36.085938 39.980469 C 35.914062 39.808594 35.78125 39.613281 35.6875 39.390625 C 35.597656 39.164062 35.550781 38.933594 35.550781 38.691406 C 35.550781 38.449219 35.597656 38.214844 35.6875 37.992188 C 35.78125 37.769531 35.914062 37.570312 36.085938 37.398438 C 36.257812 37.226562 36.453125 37.097656 36.675781 37.003906 C 36.902344 36.910156 37.132812 36.863281 37.375 36.863281 C 37.617188 36.863281 37.851562 36.910156 38.074219 37.003906 C 38.296875 37.097656 38.496094 37.226562 38.667969 37.398438 C 38.839844 37.570312 38.96875 37.769531 39.0625 37.992188 C 39.15625 38.214844 39.203125 38.449219 39.203125 38.691406 C 39.203125 38.933594 39.15625 39.164062 39.0625 39.390625 C 38.96875 39.613281 38.839844 39.808594 38.667969 39.980469 C 38.496094 40.152344 38.296875 40.285156 38.074219 40.378906 C 37.851562 40.46875 37.617188 40.515625 37.375 40.515625 Z M 37.375 40.515625 " fill-opacity="1" fill-rule="nonzero"/><path fill="#596c80" d="M 41.433594 49.238281 L 41.433594 51.671875 C 41.433594 52.238281 41.320312 52.777344 41.101562 53.296875 C 40.941406 53.660156 40.738281 53.992188 40.484375 54.296875 C 40.226562 54.597656 39.933594 54.859375 39.605469 55.078125 C 39.273438 55.292969 38.917969 55.460938 38.539062 55.574219 C 38.160156 55.6875 37.773438 55.742188 37.375 55.742188 C 36.980469 55.742188 36.59375 55.6875 36.210938 55.574219 C 35.832031 55.460938 35.476562 55.292969 35.148438 55.078125 C 34.816406 54.859375 34.523438 54.597656 34.269531 54.296875 C 34.015625 53.992188 33.808594 53.660156 33.652344 53.296875 C 33.429688 52.777344 33.320312 52.238281 33.320312 51.671875 L 33.320312 49.238281 Z M 41.433594 49.238281 " fill-opacity="1" fill-rule="nonzero"/><path fill="#6a8199" d="M 41.433594 51.671875 C 41.433594 52.238281 41.320312 52.777344 41.101562 53.296875 L 33.652344 53.296875 C 33.429688 52.777344 33.320312 52.238281 33.320312 51.671875 Z M 41.433594 51.671875 " fill-opacity="1" fill-rule="nonzero"/><path fill="#f2a130" d="M 49.546875 37.878906 L 51.980469 37.878906 L 51.980469 39.5 L 49.546875 39.5 Z M 49.546875 37.878906 " fill-opacity="1" fill-rule="nonzero"/><path fill="#f2a130" d="M 22.769531 37.878906 L 25.203125 37.878906 L 25.203125 39.5 L 22.769531 39.5 Z M 22.769531 37.878906 " fill-opacity="1" fill-rule="nonzero"/><path fill="#f2a130" d="M 36.566406 24.085938 L 38.1875 24.085938 L 38.1875 26.519531 L 36.566406 26.519531 Z M 36.566406 24.085938 " fill-opacity="1" fill-rule="nonzero"/><path fill="#f2a130" d="M 45.410156 29.507812 L 47.128906 27.785156 L 48.277344 28.933594 L 46.554688 30.65625 Z M 45.410156 29.507812 " fill-opacity="1" fill-rule="nonzero"/><path fill="#f2a130" d="M 26.476562 48.445312 L 28.199219 46.722656 L 29.347656 47.871094 L 27.625 49.589844 Z M 26.476562 48.445312 " fill-opacity="1" fill-rule="nonzero"/><path fill="#f2a130" d="M 45.410156 47.867188 L 46.558594 46.71875 L 48.28125 48.441406 L 47.132812 49.589844 Z M 45.410156 47.867188 " fill-opacity="1" fill-rule="nonzero"/><path fill="#f2a130" d="M 26.476562 28.9375 L 27.621094 27.789062 L 29.34375 29.511719 L 28.195312 30.65625 Z M 26.476562 28.9375 " fill-opacity="1" fill-rule="nonzero"/><path fill="#7a8899" d="M 37.375 15.972656 C 39.882812 15.96875 42.328125 16.355469 44.707031 17.136719 C 47.089844 17.917969 49.289062 19.050781 51.308594 20.539062 L 49.488281 22.585938 L 55.753906 23.3125 L 54.292969 17.171875 L 52.386719 19.3125 C 51.21875 18.445312 49.984375 17.679688 48.679688 17.023438 C 47.378906 16.367188 46.03125 15.832031 44.636719 15.410156 C 43.242188 14.988281 41.820312 14.691406 40.375 14.515625 C 38.925781 14.339844 37.476562 14.292969 36.019531 14.371094 C 34.566406 14.449219 33.128906 14.652344 31.707031 14.980469 C 30.289062 15.304688 28.90625 15.753906 27.566406 16.320312 C 26.222656 16.890625 24.941406 17.570312 23.714844 18.359375 C 22.492188 19.148438 21.34375 20.039062 20.273438 21.03125 C 19.207031 22.019531 18.230469 23.09375 17.347656 24.253906 C 16.464844 25.414062 15.6875 26.640625 15.019531 27.9375 C 14.351562 29.230469 13.796875 30.574219 13.363281 31.964844 C 12.925781 33.355469 12.613281 34.773438 12.421875 36.214844 C 12.234375 37.660156 12.171875 39.113281 12.234375 40.566406 C 12.296875 42.023438 12.484375 43.464844 12.796875 44.886719 C 13.109375 46.308594 13.542969 47.695312 14.09375 49.042969 C 14.648438 50.390625 15.316406 51.683594 16.09375 52.914062 L 17.464844 52.054688 C 16.90625 51.167969 16.40625 50.25 15.972656 49.296875 C 15.535156 48.34375 15.164062 47.367188 14.859375 46.363281 C 14.554688 45.363281 14.316406 44.34375 14.148438 43.308594 C 13.976562 42.277344 13.878906 41.234375 13.847656 40.1875 C 13.816406 39.140625 13.855469 38.097656 13.964844 37.054688 C 14.074219 36.011719 14.25 34.984375 14.496094 33.964844 C 14.742188 32.945312 15.054688 31.949219 15.4375 30.972656 C 15.816406 29.996094 16.257812 29.050781 16.765625 28.132812 C 17.269531 27.214844 17.835938 26.335938 18.460938 25.496094 C 19.082031 24.652344 19.761719 23.855469 20.488281 23.105469 C 21.21875 22.351562 21.996094 21.652344 22.820312 21.007812 C 23.644531 20.359375 24.507812 19.769531 25.410156 19.234375 C 26.3125 18.703125 27.246094 18.234375 28.210938 17.824219 C 29.175781 17.417969 30.164062 17.078125 31.171875 16.800781 C 32.183594 16.523438 33.207031 16.316406 34.246094 16.179688 C 35.285156 16.039062 36.328125 15.96875 37.375 15.972656 Z M 37.375 15.972656 " fill-opacity="1" fill-rule="nonzero"/><path fill="#7a8899" d="M 58.660156 26.089844 L 57.289062 26.949219 C 58.011719 28.097656 58.628906 29.304688 59.144531 30.558594 C 59.660156 31.816406 60.0625 33.109375 60.351562 34.4375 C 60.644531 35.765625 60.820312 37.105469 60.878906 38.464844 C 60.933594 39.820312 60.875 41.171875 60.699219 42.519531 C 60.523438 43.867188 60.234375 45.191406 59.828125 46.488281 C 59.425781 47.785156 58.910156 49.035156 58.289062 50.242188 C 57.667969 51.453125 56.949219 52.597656 56.128906 53.679688 C 55.308594 54.765625 54.398438 55.769531 53.40625 56.695312 C 52.410156 57.621094 51.34375 58.453125 50.207031 59.195312 C 49.066406 59.9375 47.875 60.574219 46.625 61.109375 C 45.375 61.644531 44.089844 62.066406 42.769531 62.378906 C 41.445312 62.691406 40.105469 62.886719 38.75 62.964844 C 37.394531 63.046875 36.039062 63.007812 34.691406 62.851562 C 33.339844 62.699219 32.015625 62.429688 30.710938 62.046875 C 29.410156 61.660156 28.148438 61.167969 26.929688 60.566406 C 25.714844 59.960938 24.554688 59.257812 23.460938 58.457031 L 25.261719 56.417969 L 18.996094 55.730469 L 20.457031 61.871094 L 22.363281 59.722656 C 23.535156 60.589844 24.769531 61.355469 26.070312 62.007812 C 27.371094 62.664062 28.71875 63.203125 30.113281 63.621094 C 31.507812 64.042969 32.929688 64.339844 34.375 64.515625 C 35.820312 64.6875 37.269531 64.734375 38.726562 64.65625 C 40.179688 64.582031 41.617188 64.378906 43.035156 64.050781 C 44.457031 63.722656 45.835938 63.273438 47.179688 62.707031 C 48.519531 62.140625 49.800781 61.460938 51.027344 60.671875 C 52.25 59.878906 53.394531 58.988281 54.464844 58 C 55.535156 57.011719 56.507812 55.9375 57.390625 54.777344 C 58.273438 53.621094 59.050781 52.394531 59.71875 51.097656 C 60.390625 49.804688 60.941406 48.464844 61.378906 47.074219 C 61.8125 45.683594 62.128906 44.265625 62.316406 42.824219 C 62.507812 41.378906 62.570312 39.929688 62.507812 38.472656 C 62.449219 37.019531 62.261719 35.578125 61.949219 34.15625 C 61.636719 32.734375 61.207031 31.347656 60.652344 30 C 60.101562 28.652344 59.4375 27.363281 58.660156 26.128906 Z M 58.660156 26.089844 " fill-opacity="1" fill-rule="nonzero"/></svg>