<svg xmlns="http://www.w3.org/2000/svg" xmlns:xlink="http://www.w3.org/1999/xlink" width="100" zoomAndPan="magnify" viewBox="0 0 75 74.999997" height="100" preserveAspectRatio="xMidYMid meet" version="1.0"><defs><clipPath id="fee8d37ca7"><path d="M 8.089844 28 L 52 28 L 52 60 L 8.089844 60 Z M 8.089844 28 " clip-rule="nonzero"/></clipPath><clipPath id="78900722a1"><path d="M 47 56 L 52 56 L 52 63.902344 L 47 63.902344 Z M 47 56 " clip-rule="nonzero"/></clipPath><clipPath id="1c2aa8bff7"><path d="M 8.089844 24 L 17 24 L 17 52 L 8.089844 52 Z M 8.089844 24 " clip-rule="nonzero"/></clipPath><clipPath id="08dbfdb5c8"><path d="M 8.089844 28 L 53 28 L 53 61 L 8.089844 61 Z M 8.089844 28 " clip-rule="nonzero"/></clipPath><clipPath id="c2a41c3093"><path d="M 47 55 L 53 55 L 53 63.902344 L 47 63.902344 Z M 47 55 " clip-rule="nonzero"/></clipPath><clipPath id="c8cd0b2bb5"><path d="M 8.089844 24 L 17 24 L 17 53 L 8.089844 53 Z M 8.089844 24 " clip-rule="nonzero"/></clipPath><clipPath id="fe89bd84ec"><path d="M 54 44 L 67.339844 44 L 67.339844 54 L 54 54 Z M 54 44 " clip-rule="nonzero"/></clipPath><clipPath id="963a42b0ec"><path d="M 63 45 L 67.339844 45 L 67.339844 54 L 63 54 Z M 63 45 " clip-rule="nonzero"/></clipPath><clipPath id="507b8ae823"><path d="M 38 61 L 42 61 L 42 63.902344 L 38 63.902344 Z M 38 61 " clip-rule="nonzero"/></clipPath><clipPath id="bc0177cbbf"><path d="M 8.089844 61 L 39 61 L 39 63.902344 L 8.089844 63.902344 Z M 8.089844 61 " clip-rule="nonzero"/></clipPath><clipPath id="12f38d79f2"><path d="M 10 61 L 12 61 L 12 63.902344 L 10 63.902344 Z M 10 61 " clip-rule="nonzero"/></clipPath><clipPath id="4fab02f38c"><path d="M 8.089844 61 L 11 61 L 11 63.902344 L 8.089844 63.902344 Z M 8.089844 61 " clip-rule="nonzero"/></clipPath><clipPath id="419b34744b"><path d="M 38 60 L 42 60 L 42 63.902344 L 38 63.902344 Z M 38 60 " clip-rule="nonzero"/></clipPath><clipPath id="91c47829fd"><path d="M 8.089844 60 L 40 60 L 40 63.902344 L 8.089844 63.902344 Z M 8.089844 60 " clip-rule="nonzero"/></clipPath><clipPath id="e51cc3550e"><path d="M 8.089844 60 L 40 60 L 40 63 L 8.089844 63 Z M 8.089844 60 " clip-rule="nonzero"/></clipPath><clipPath id="06ff9a4e27"><path d="M 40 61 L 42 61 L 42 63.902344 L 40 63.902344 Z M 40 61 " clip-rule="nonzero"/></clipPath><clipPath id="9013213e26"><path d="M 10 60 L 12 60 L 12 63.902344 L 10 63.902344 Z M 10 60 " clip-rule="nonzero"/></clipPath><clipPath id="31b4f3ef6e"><path d="M 8.089844 61 L 11 61 L 11 63.902344 L 8.089844 63.902344 Z M 8.089844 61 " clip-rule="nonzero"/></clipPath><clipPath id="859e984d22"><path d="M 8.089844 60 L 11 60 L 11 63.902344 L 8.089844 63.902344 Z M 8.089844 60 " clip-rule="nonzero"/></clipPath><clipPath id="cc1beb13a2"><path d="M 24 20.402344 L 57 20.402344 L 57 44 L 24 44 Z M 24 20.402344 " clip-rule="nonzero"/></clipPath></defs><rect x="-7.5" width="90" fill="#ffffff" y="-7.5" height="89.999996" fill-opacity="1"/><rect x="-7.5" width="90" fill="#ffffff" y="-7.5" height="89.999996" fill-opacity="1"/><rect x="-7.5" width="90" fill="#ffffff" y="-7.5" height="89.999996" fill-opacity="1"/><g clip-path="url(#fee8d37ca7)"><path fill="#ffffff" d="M 8.339844 28.886719 L 8.339844 51.996094 C 8.339844 54.214844 10.136719 56.007812 12.359375 56.007812 L 47.988281 56.007812 C 50.089844 56.007812 51.789062 57.710938 51.789062 59.808594 L 51.789062 32.683594 C 51.789062 31.710938 51.417969 30.738281 50.675781 30 C 49.933594 29.257812 48.960938 28.886719 47.988281 28.886719 Z M 8.339844 28.886719 " fill-opacity="1" fill-rule="nonzero"/></g><g clip-path="url(#78900722a1)"><path fill="#92deeb" d="M 47.988281 56.007812 L 47.988281 63.605469 C 50.085938 63.605469 51.789062 61.902344 51.789062 59.808594 C 51.789062 57.710938 50.085938 56.007812 47.988281 56.007812 Z M 47.988281 56.007812 " fill-opacity="1" fill-rule="nonzero"/></g><g clip-path="url(#1c2aa8bff7)"><path fill="#92deeb" d="M 12.359375 24.871094 C 14.578125 24.871094 16.378906 26.667969 16.378906 28.886719 L 16.378906 51.996094 C 16.378906 49.777344 14.578125 47.980469 12.359375 47.980469 C 10.140625 47.980469 8.339844 49.777344 8.339844 51.996094 L 8.339844 28.886719 C 8.339844 26.667969 10.140625 24.871094 12.359375 24.871094 Z M 12.359375 24.871094 " fill-opacity="1" fill-rule="nonzero"/></g><g clip-path="url(#08dbfdb5c8)"><path fill="#232e38" d="M 51.789062 60.054688 C 51.652344 60.054688 51.539062 59.941406 51.539062 59.804688 C 51.539062 57.851562 49.945312 56.261719 47.988281 56.261719 L 12.359375 56.261719 C 10.003906 56.261719 8.089844 54.347656 8.089844 51.996094 L 8.089844 28.886719 C 8.089844 28.75 8.199219 28.636719 8.339844 28.636719 C 8.476562 28.636719 8.589844 28.75 8.589844 28.886719 L 8.589844 51.996094 C 8.589844 54.070312 10.28125 55.761719 12.359375 55.761719 L 47.988281 55.761719 C 49.515625 55.761719 50.847656 56.609375 51.539062 57.863281 L 51.539062 32.683594 C 51.539062 31.734375 51.171875 30.84375 50.5 30.175781 C 49.828125 29.503906 48.9375 29.136719 47.988281 29.136719 L 16.378906 29.136719 C 16.238281 29.136719 16.128906 29.023438 16.128906 28.886719 C 16.128906 28.75 16.238281 28.636719 16.378906 28.636719 L 47.988281 28.636719 C 49.070312 28.636719 50.085938 29.058594 50.851562 29.824219 C 51.617188 30.585938 52.039062 31.601562 52.039062 32.683594 L 52.039062 59.804688 C 52.039062 59.941406 51.925781 60.054688 51.789062 60.054688 Z M 51.789062 60.054688 " fill-opacity="1" fill-rule="nonzero"/></g><g clip-path="url(#c2a41c3093)"><path fill="#232e38" d="M 47.988281 63.855469 C 47.851562 63.855469 47.738281 63.742188 47.738281 63.605469 L 47.738281 56.007812 C 47.738281 55.871094 47.851562 55.761719 47.988281 55.761719 C 50.222656 55.761719 52.039062 57.574219 52.039062 59.808594 C 52.039062 62.039062 50.222656 63.855469 47.988281 63.855469 Z M 48.238281 56.269531 L 48.238281 63.347656 C 50.078125 63.21875 51.539062 61.679688 51.539062 59.808594 C 51.539062 57.933594 50.078125 56.394531 48.238281 56.269531 Z M 48.238281 56.269531 " fill-opacity="1" fill-rule="nonzero"/></g><g clip-path="url(#c8cd0b2bb5)"><path fill="#232e38" d="M 16.378906 52.246094 C 16.238281 52.246094 16.128906 52.132812 16.128906 51.996094 C 16.128906 49.917969 14.4375 48.230469 12.359375 48.230469 C 10.28125 48.230469 8.589844 49.917969 8.589844 51.996094 C 8.589844 52.132812 8.476562 52.246094 8.339844 52.246094 C 8.203125 52.246094 8.089844 52.132812 8.089844 51.996094 L 8.089844 28.886719 C 8.089844 26.535156 10.003906 24.621094 12.359375 24.621094 C 14.710938 24.621094 16.628906 26.535156 16.628906 28.886719 L 16.628906 51.996094 C 16.628906 52.132812 16.515625 52.246094 16.378906 52.246094 Z M 12.359375 47.730469 C 13.988281 47.730469 15.410156 48.648438 16.128906 49.996094 L 16.128906 28.886719 C 16.128906 26.808594 14.4375 25.121094 12.359375 25.121094 C 10.28125 25.121094 8.589844 26.808594 8.589844 28.886719 L 8.589844 49.996094 C 9.308594 48.648438 10.726562 47.730469 12.359375 47.730469 Z M 12.359375 47.730469 " fill-opacity="1" fill-rule="nonzero"/></g><path fill="#232e38" d="M 12.359375 54.9375 C 12.222656 54.9375 12.109375 55.050781 12.109375 55.1875 L 12.109375 56.011719 C 12.109375 56.148438 12.222656 56.261719 12.359375 56.261719 C 12.496094 56.261719 12.609375 56.148438 12.609375 56.011719 L 12.609375 55.1875 C 12.609375 55.050781 12.496094 54.9375 12.359375 54.9375 Z M 12.359375 54.9375 " fill-opacity="1" fill-rule="nonzero"/><path fill="#232e38" d="M 13.730469 54.9375 C 13.59375 54.9375 13.480469 55.050781 13.480469 55.1875 L 13.480469 56.011719 C 13.480469 56.148438 13.589844 56.261719 13.730469 56.261719 C 13.867188 56.261719 13.980469 56.148438 13.980469 56.011719 L 13.980469 55.1875 C 13.980469 55.050781 13.867188 54.9375 13.730469 54.9375 Z M 13.730469 54.9375 " fill-opacity="1" fill-rule="nonzero"/><path fill="#232e38" d="M 15.101562 54.9375 C 14.960938 54.9375 14.851562 55.050781 14.851562 55.1875 L 14.851562 56.011719 C 14.851562 56.148438 14.960938 56.261719 15.101562 56.261719 C 15.238281 56.261719 15.351562 56.148438 15.351562 56.011719 L 15.351562 55.1875 C 15.351562 55.050781 15.238281 54.9375 15.101562 54.9375 Z M 15.101562 54.9375 " fill-opacity="1" fill-rule="nonzero"/><path fill="#232e38" d="M 16.46875 54.9375 C 16.332031 54.9375 16.21875 55.050781 16.21875 55.1875 L 16.21875 56.011719 C 16.21875 56.148438 16.332031 56.261719 16.46875 56.261719 C 16.609375 56.261719 16.71875 56.148438 16.71875 56.011719 L 16.71875 55.1875 C 16.71875 55.050781 16.609375 54.9375 16.46875 54.9375 Z M 16.46875 54.9375 " fill-opacity="1" fill-rule="nonzero"/><path fill="#232e38" d="M 17.839844 54.9375 C 17.703125 54.9375 17.589844 55.050781 17.589844 55.1875 L 17.589844 56.011719 C 17.589844 56.148438 17.703125 56.261719 17.839844 56.261719 C 17.980469 56.261719 18.089844 56.148438 18.089844 56.011719 L 18.089844 55.1875 C 18.089844 55.050781 17.980469 54.9375 17.839844 54.9375 Z M 17.839844 54.9375 " fill-opacity="1" fill-rule="nonzero"/><path fill="#232e38" d="M 19.210938 54.9375 C 19.074219 54.9375 18.960938 55.050781 18.960938 55.1875 L 18.960938 56.011719 C 18.960938 56.148438 19.074219 56.261719 19.210938 56.261719 C 19.347656 56.261719 19.460938 56.148438 19.460938 56.011719 L 19.460938 55.1875 C 19.460938 55.050781 19.347656 54.9375 19.210938 54.9375 Z M 19.210938 54.9375 " fill-opacity="1" fill-rule="nonzero"/><path fill="#232e38" d="M 20.582031 54.9375 C 20.445312 54.9375 20.332031 55.050781 20.332031 55.1875 L 20.332031 56.011719 C 20.332031 56.148438 20.445312 56.261719 20.582031 56.261719 C 20.71875 56.261719 20.832031 56.148438 20.832031 56.011719 L 20.832031 55.1875 C 20.832031 55.050781 20.71875 54.9375 20.582031 54.9375 Z M 20.582031 54.9375 " fill-opacity="1" fill-rule="nonzero"/><path fill="#232e38" d="M 21.953125 54.9375 C 21.8125 54.9375 21.703125 55.050781 21.703125 55.1875 L 21.703125 56.011719 C 21.703125 56.148438 21.8125 56.261719 21.953125 56.261719 C 22.089844 56.261719 22.203125 56.148438 22.203125 56.011719 L 22.203125 55.1875 C 22.203125 55.050781 22.089844 54.9375 21.953125 54.9375 Z M 21.953125 54.9375 " fill-opacity="1" fill-rule="nonzero"/><path fill="#232e38" d="M 23.320312 54.9375 C 23.183594 54.9375 23.074219 55.050781 23.074219 55.1875 L 23.074219 56.011719 C 23.074219 56.148438 23.183594 56.261719 23.320312 56.261719 C 23.460938 56.261719 23.570312 56.148438 23.570312 56.011719 L 23.570312 55.1875 C 23.570312 55.050781 23.460938 54.9375 23.320312 54.9375 Z M 23.320312 54.9375 " fill-opacity="1" fill-rule="nonzero"/><path fill="#232e38" d="M 24.691406 54.9375 C 24.554688 54.9375 24.441406 55.050781 24.441406 55.1875 L 24.441406 56.011719 C 24.441406 56.148438 24.554688 56.261719 24.691406 56.261719 C 24.832031 56.261719 24.941406 56.148438 24.941406 56.011719 L 24.941406 55.1875 C 24.941406 55.050781 24.832031 54.9375 24.691406 54.9375 Z M 24.691406 54.9375 " fill-opacity="1" fill-rule="nonzero"/><path fill="#232e38" d="M 26.0625 54.9375 C 25.925781 54.9375 25.8125 55.050781 25.8125 55.1875 L 25.8125 56.011719 C 25.8125 56.148438 25.925781 56.261719 26.0625 56.261719 C 26.199219 56.261719 26.3125 56.148438 26.3125 56.011719 L 26.3125 55.1875 C 26.3125 55.050781 26.199219 54.9375 26.0625 54.9375 Z M 26.0625 54.9375 " fill-opacity="1" fill-rule="nonzero"/><path fill="#232e38" d="M 27.433594 54.9375 C 27.296875 54.9375 27.183594 55.050781 27.183594 55.1875 L 27.183594 56.011719 C 27.183594 56.148438 27.292969 56.261719 27.433594 56.261719 C 27.570312 56.261719 27.683594 56.148438 27.683594 56.011719 L 27.683594 55.1875 C 27.683594 55.050781 27.570312 54.9375 27.433594 54.9375 Z M 27.433594 54.9375 " fill-opacity="1" fill-rule="nonzero"/><path fill="#232e38" d="M 28.804688 54.9375 C 28.664062 54.9375 28.554688 55.050781 28.554688 55.1875 L 28.554688 56.011719 C 28.554688 56.148438 28.664062 56.261719 28.804688 56.261719 C 28.941406 56.261719 29.054688 56.148438 29.054688 56.011719 L 29.054688 55.1875 C 29.054688 55.050781 28.941406 54.9375 28.804688 54.9375 Z M 28.804688 54.9375 " fill-opacity="1" fill-rule="nonzero"/><path fill="#232e38" d="M 30.171875 54.9375 C 30.035156 54.9375 29.925781 55.050781 29.925781 55.1875 L 29.925781 56.011719 C 29.925781 56.148438 30.035156 56.261719 30.171875 56.261719 C 30.3125 56.261719 30.421875 56.148438 30.421875 56.011719 L 30.421875 55.1875 C 30.421875 55.050781 30.3125 54.9375 30.171875 54.9375 Z M 30.171875 54.9375 " fill-opacity="1" fill-rule="nonzero"/><path fill="#232e38" d="M 31.542969 54.9375 C 31.40625 54.9375 31.292969 55.050781 31.292969 55.1875 L 31.292969 56.011719 C 31.292969 56.148438 31.40625 56.261719 31.542969 56.261719 C 31.683594 56.261719 31.792969 56.148438 31.792969 56.011719 L 31.792969 55.1875 C 31.792969 55.050781 31.683594 54.9375 31.542969 54.9375 Z M 31.542969 54.9375 " fill-opacity="1" fill-rule="nonzero"/><path fill="#232e38" d="M 32.914062 54.9375 C 32.777344 54.9375 32.664062 55.050781 32.664062 55.1875 L 32.664062 56.011719 C 32.664062 56.148438 32.777344 56.261719 32.914062 56.261719 C 33.050781 56.261719 33.164062 56.148438 33.164062 56.011719 L 33.164062 55.1875 C 33.164062 55.050781 33.050781 54.9375 32.914062 54.9375 Z M 32.914062 54.9375 " fill-opacity="1" fill-rule="nonzero"/><path fill="#232e38" d="M 34.285156 54.9375 C 34.148438 54.9375 34.035156 55.050781 34.035156 55.1875 L 34.035156 56.011719 C 34.035156 56.148438 34.148438 56.261719 34.285156 56.261719 C 34.421875 56.261719 34.535156 56.148438 34.535156 56.011719 L 34.535156 55.1875 C 34.535156 55.050781 34.421875 54.9375 34.285156 54.9375 Z M 34.285156 54.9375 " fill-opacity="1" fill-rule="nonzero"/><path fill="#232e38" d="M 35.65625 54.9375 C 35.515625 54.9375 35.40625 55.050781 35.40625 55.1875 L 35.40625 56.011719 C 35.40625 56.148438 35.515625 56.261719 35.65625 56.261719 C 35.792969 56.261719 35.902344 56.148438 35.902344 56.011719 L 35.902344 55.1875 C 35.90625 55.050781 35.792969 54.9375 35.65625 54.9375 Z M 35.65625 54.9375 " fill-opacity="1" fill-rule="nonzero"/><path fill="#232e38" d="M 37.023438 54.9375 C 36.886719 54.9375 36.773438 55.050781 36.773438 55.1875 L 36.773438 56.011719 C 36.773438 56.148438 36.886719 56.261719 37.023438 56.261719 C 37.164062 56.261719 37.273438 56.148438 37.273438 56.011719 L 37.273438 55.1875 C 37.273438 55.050781 37.164062 54.9375 37.023438 54.9375 Z M 37.023438 54.9375 " fill-opacity="1" fill-rule="nonzero"/><path fill="#232e38" d="M 38.394531 54.9375 C 38.257812 54.9375 38.144531 55.050781 38.144531 55.1875 L 38.144531 56.011719 C 38.144531 56.148438 38.257812 56.261719 38.394531 56.261719 C 38.535156 56.261719 38.644531 56.148438 38.644531 56.011719 L 38.644531 55.1875 C 38.644531 55.050781 38.535156 54.9375 38.394531 54.9375 Z M 38.394531 54.9375 " fill-opacity="1" fill-rule="nonzero"/><path fill="#232e38" d="M 39.765625 54.9375 C 39.628906 54.9375 39.515625 55.050781 39.515625 55.1875 L 39.515625 56.011719 C 39.515625 56.148438 39.628906 56.261719 39.765625 56.261719 C 39.902344 56.261719 40.015625 56.148438 40.015625 56.011719 L 40.015625 55.1875 C 40.015625 55.050781 39.902344 54.9375 39.765625 54.9375 Z M 39.765625 54.9375 " fill-opacity="1" fill-rule="nonzero"/><path fill="#232e38" d="M 41.136719 54.9375 C 41 54.9375 40.886719 55.050781 40.886719 55.1875 L 40.886719 56.011719 C 40.886719 56.148438 41 56.261719 41.136719 56.261719 C 41.273438 56.261719 41.386719 56.148438 41.386719 56.011719 L 41.386719 55.1875 C 41.386719 55.050781 41.273438 54.9375 41.136719 54.9375 Z M 41.136719 54.9375 " fill-opacity="1" fill-rule="nonzero"/><path fill="#232e38" d="M 42.507812 54.9375 C 42.367188 54.9375 42.257812 55.050781 42.257812 55.1875 L 42.257812 56.011719 C 42.257812 56.148438 42.367188 56.261719 42.507812 56.261719 C 42.644531 56.261719 42.757812 56.148438 42.757812 56.011719 L 42.757812 55.1875 C 42.757812 55.050781 42.644531 54.9375 42.507812 54.9375 Z M 42.507812 54.9375 " fill-opacity="1" fill-rule="nonzero"/><path fill="#232e38" d="M 43.875 54.9375 C 43.738281 54.9375 43.625 55.050781 43.625 55.1875 L 43.625 56.011719 C 43.625 56.148438 43.738281 56.261719 43.875 56.261719 C 44.015625 56.261719 44.125 56.148438 44.125 56.011719 L 44.125 55.1875 C 44.125 55.050781 44.015625 54.9375 43.875 54.9375 Z M 43.875 54.9375 " fill-opacity="1" fill-rule="nonzero"/><path fill="#232e38" d="M 45.246094 54.9375 C 45.109375 54.9375 44.996094 55.050781 44.996094 55.1875 L 44.996094 56.011719 C 44.996094 56.148438 45.109375 56.261719 45.246094 56.261719 C 45.386719 56.261719 45.496094 56.148438 45.496094 56.011719 L 45.496094 55.1875 C 45.496094 55.050781 45.386719 54.9375 45.246094 54.9375 Z M 45.246094 54.9375 " fill-opacity="1" fill-rule="nonzero"/><path fill="#232e38" d="M 46.617188 54.9375 C 46.480469 54.9375 46.367188 55.050781 46.367188 55.1875 L 46.367188 56.011719 C 46.367188 56.148438 46.480469 56.261719 46.617188 56.261719 C 46.753906 56.261719 46.867188 56.148438 46.867188 56.011719 L 46.867188 55.1875 C 46.867188 55.050781 46.753906 54.9375 46.617188 54.9375 Z M 46.617188 54.9375 " fill-opacity="1" fill-rule="nonzero"/><path fill="#232e38" d="M 47.988281 54.9375 C 47.851562 54.9375 47.738281 55.050781 47.738281 55.1875 L 47.738281 56.011719 C 47.738281 56.148438 47.851562 56.261719 47.988281 56.261719 C 48.125 56.261719 48.238281 56.148438 48.238281 56.011719 L 48.238281 55.1875 C 48.238281 55.050781 48.125 54.9375 47.988281 54.9375 Z M 47.988281 54.9375 " fill-opacity="1" fill-rule="nonzero"/><path fill="#232e38" d="M 17.839844 28.636719 C 17.703125 28.636719 17.589844 28.75 17.589844 28.886719 L 17.589844 29.707031 C 17.589844 29.847656 17.703125 29.957031 17.839844 29.957031 C 17.980469 29.957031 18.089844 29.847656 18.089844 29.707031 L 18.089844 28.886719 C 18.089844 28.75 17.980469 28.636719 17.839844 28.636719 Z M 17.839844 28.636719 " fill-opacity="1" fill-rule="nonzero"/><path fill="#232e38" d="M 19.210938 28.636719 C 19.074219 28.636719 18.960938 28.75 18.960938 28.886719 L 18.960938 29.707031 C 18.960938 29.847656 19.074219 29.957031 19.210938 29.957031 C 19.347656 29.957031 19.460938 29.847656 19.460938 29.707031 L 19.460938 28.886719 C 19.460938 28.75 19.347656 28.636719 19.210938 28.636719 Z M 19.210938 28.636719 " fill-opacity="1" fill-rule="nonzero"/><path fill="#232e38" d="M 20.582031 28.636719 C 20.445312 28.636719 20.332031 28.75 20.332031 28.886719 L 20.332031 29.707031 C 20.332031 29.847656 20.445312 29.957031 20.582031 29.957031 C 20.71875 29.957031 20.832031 29.847656 20.832031 29.707031 L 20.832031 28.886719 C 20.832031 28.75 20.71875 28.636719 20.582031 28.636719 Z M 20.582031 28.636719 " fill-opacity="1" fill-rule="nonzero"/><path fill="#232e38" d="M 21.953125 28.636719 C 21.8125 28.636719 21.703125 28.75 21.703125 28.886719 L 21.703125 29.707031 C 21.703125 29.847656 21.8125 29.957031 21.953125 29.957031 C 22.089844 29.957031 22.203125 29.847656 22.203125 29.707031 L 22.203125 28.886719 C 22.203125 28.75 22.089844 28.636719 21.953125 28.636719 Z M 21.953125 28.636719 " fill-opacity="1" fill-rule="nonzero"/><path fill="#232e38" d="M 23.320312 28.636719 C 23.183594 28.636719 23.074219 28.75 23.074219 28.886719 L 23.074219 29.707031 C 23.074219 29.847656 23.183594 29.957031 23.320312 29.957031 C 23.460938 29.957031 23.570312 29.847656 23.570312 29.707031 L 23.570312 28.886719 C 23.570312 28.75 23.460938 28.636719 23.320312 28.636719 Z M 23.320312 28.636719 " fill-opacity="1" fill-rule="nonzero"/><path fill="#232e38" d="M 24.691406 28.636719 C 24.554688 28.636719 24.441406 28.75 24.441406 28.886719 L 24.441406 29.707031 C 24.441406 29.847656 24.554688 29.957031 24.691406 29.957031 C 24.832031 29.957031 24.941406 29.847656 24.941406 29.707031 L 24.941406 28.886719 C 24.941406 28.75 24.832031 28.636719 24.691406 28.636719 Z M 24.691406 28.636719 " fill-opacity="1" fill-rule="nonzero"/><path fill="#232e38" d="M 26.0625 28.636719 C 25.925781 28.636719 25.8125 28.75 25.8125 28.886719 L 25.8125 29.707031 C 25.8125 29.847656 25.925781 29.957031 26.0625 29.957031 C 26.199219 29.957031 26.3125 29.847656 26.3125 29.707031 L 26.3125 28.886719 C 26.3125 28.75 26.199219 28.636719 26.0625 28.636719 Z M 26.0625 28.636719 " fill-opacity="1" fill-rule="nonzero"/><path fill="#232e38" d="M 27.433594 28.636719 C 27.296875 28.636719 27.183594 28.75 27.183594 28.886719 L 27.183594 29.707031 C 27.183594 29.847656 27.292969 29.957031 27.433594 29.957031 C 27.570312 29.957031 27.683594 29.847656 27.683594 29.707031 L 27.683594 28.886719 C 27.683594 28.75 27.570312 28.636719 27.433594 28.636719 Z M 27.433594 28.636719 " fill-opacity="1" fill-rule="nonzero"/><path fill="#232e38" d="M 28.804688 28.636719 C 28.664062 28.636719 28.554688 28.75 28.554688 28.886719 L 28.554688 29.707031 C 28.554688 29.847656 28.664062 29.957031 28.804688 29.957031 C 28.941406 29.957031 29.054688 29.847656 29.054688 29.707031 L 29.054688 28.886719 C 29.054688 28.75 28.941406 28.636719 28.804688 28.636719 Z M 28.804688 28.636719 " fill-opacity="1" fill-rule="nonzero"/><path fill="#232e38" d="M 30.171875 28.636719 C 30.035156 28.636719 29.925781 28.75 29.925781 28.886719 L 29.925781 29.707031 C 29.925781 29.847656 30.035156 29.957031 30.171875 29.957031 C 30.3125 29.957031 30.421875 29.847656 30.421875 29.707031 L 30.421875 28.886719 C 30.421875 28.75 30.3125 28.636719 30.171875 28.636719 Z M 30.171875 28.636719 " fill-opacity="1" fill-rule="nonzero"/><path fill="#232e38" d="M 31.542969 28.636719 C 31.40625 28.636719 31.292969 28.75 31.292969 28.886719 L 31.292969 29.707031 C 31.292969 29.847656 31.40625 29.957031 31.542969 29.957031 C 31.683594 29.957031 31.792969 29.847656 31.792969 29.707031 L 31.792969 28.886719 C 31.792969 28.75 31.683594 28.636719 31.542969 28.636719 Z M 31.542969 28.636719 " fill-opacity="1" fill-rule="nonzero"/><path fill="#232e38" d="M 32.914062 28.636719 C 32.777344 28.636719 32.664062 28.75 32.664062 28.886719 L 32.664062 29.707031 C 32.664062 29.847656 32.777344 29.957031 32.914062 29.957031 C 33.050781 29.957031 33.164062 29.847656 33.164062 29.707031 L 33.164062 28.886719 C 33.164062 28.75 33.050781 28.636719 32.914062 28.636719 Z M 32.914062 28.636719 " fill-opacity="1" fill-rule="nonzero"/><path fill="#232e38" d="M 34.285156 28.636719 C 34.148438 28.636719 34.035156 28.75 34.035156 28.886719 L 34.035156 29.707031 C 34.035156 29.847656 34.148438 29.957031 34.285156 29.957031 C 34.421875 29.957031 34.535156 29.847656 34.535156 29.707031 L 34.535156 28.886719 C 34.535156 28.75 34.421875 28.636719 34.285156 28.636719 Z M 34.285156 28.636719 " fill-opacity="1" fill-rule="nonzero"/><path fill="#232e38" d="M 35.65625 28.636719 C 35.515625 28.636719 35.40625 28.75 35.40625 28.886719 L 35.40625 29.707031 C 35.40625 29.847656 35.515625 29.957031 35.65625 29.957031 C 35.792969 29.957031 35.902344 29.847656 35.902344 29.707031 L 35.902344 28.886719 C 35.90625 28.75 35.792969 28.636719 35.65625 28.636719 Z M 35.65625 28.636719 " fill-opacity="1" fill-rule="nonzero"/><path fill="#232e38" d="M 37.023438 28.636719 C 36.886719 28.636719 36.773438 28.75 36.773438 28.886719 L 36.773438 29.707031 C 36.773438 29.847656 36.886719 29.957031 37.023438 29.957031 C 37.164062 29.957031 37.273438 29.847656 37.273438 29.707031 L 37.273438 28.886719 C 37.273438 28.75 37.164062 28.636719 37.023438 28.636719 Z M 37.023438 28.636719 " fill-opacity="1" fill-rule="nonzero"/><path fill="#232e38" d="M 38.394531 28.636719 C 38.257812 28.636719 38.144531 28.75 38.144531 28.886719 L 38.144531 29.707031 C 38.144531 29.847656 38.257812 29.957031 38.394531 29.957031 C 38.535156 29.957031 38.644531 29.847656 38.644531 29.707031 L 38.644531 28.886719 C 38.644531 28.75 38.535156 28.636719 38.394531 28.636719 Z M 38.394531 28.636719 " fill-opacity="1" fill-rule="nonzero"/><path fill="#232e38" d="M 39.765625 28.636719 C 39.628906 28.636719 39.515625 28.75 39.515625 28.886719 L 39.515625 29.707031 C 39.515625 29.847656 39.628906 29.957031 39.765625 29.957031 C 39.902344 29.957031 40.015625 29.847656 40.015625 29.707031 L 40.015625 28.886719 C 40.015625 28.75 39.902344 28.636719 39.765625 28.636719 Z M 39.765625 28.636719 " fill-opacity="1" fill-rule="nonzero"/><path fill="#232e38" d="M 41.136719 28.636719 C 41 28.636719 40.886719 28.75 40.886719 28.886719 L 40.886719 29.707031 C 40.886719 29.847656 41 29.957031 41.136719 29.957031 C 41.273438 29.957031 41.386719 29.847656 41.386719 29.707031 L 41.386719 28.886719 C 41.386719 28.75 41.273438 28.636719 41.136719 28.636719 Z M 41.136719 28.636719 " fill-opacity="1" fill-rule="nonzero"/><path fill="#232e38" d="M 42.507812 28.636719 C 42.367188 28.636719 42.257812 28.75 42.257812 28.886719 L 42.257812 29.707031 C 42.257812 29.847656 42.367188 29.957031 42.507812 29.957031 C 42.644531 29.957031 42.757812 29.847656 42.757812 29.707031 L 42.757812 28.886719 C 42.757812 28.75 42.644531 28.636719 42.507812 28.636719 Z M 42.507812 28.636719 " fill-opacity="1" fill-rule="nonzero"/><path fill="#232e38" d="M 43.875 28.636719 C 43.738281 28.636719 43.625 28.75 43.625 28.886719 L 43.625 29.707031 C 43.625 29.847656 43.738281 29.957031 43.875 29.957031 C 44.015625 29.957031 44.125 29.847656 44.125 29.707031 L 44.125 28.886719 C 44.125 28.75 44.015625 28.636719 43.875 28.636719 Z M 43.875 28.636719 " fill-opacity="1" fill-rule="nonzero"/><path fill="#232e38" d="M 45.246094 28.636719 C 45.109375 28.636719 44.996094 28.75 44.996094 28.886719 L 44.996094 29.707031 C 44.996094 29.847656 45.109375 29.957031 45.246094 29.957031 C 45.386719 29.957031 45.496094 29.847656 45.496094 29.707031 L 45.496094 28.886719 C 45.496094 28.75 45.386719 28.636719 45.246094 28.636719 Z M 45.246094 28.636719 " fill-opacity="1" fill-rule="nonzero"/><path fill="#232e38" d="M 46.617188 28.636719 C 46.480469 28.636719 46.367188 28.75 46.367188 28.886719 L 46.367188 29.707031 C 46.367188 29.847656 46.480469 29.957031 46.617188 29.957031 C 46.753906 29.957031 46.867188 29.847656 46.867188 29.707031 L 46.867188 28.886719 C 46.867188 28.75 46.753906 28.636719 46.617188 28.636719 Z M 46.617188 28.636719 " fill-opacity="1" fill-rule="nonzero"/><path fill="#232e38" d="M 47.988281 28.636719 C 47.851562 28.636719 47.738281 28.75 47.738281 28.886719 L 47.738281 29.707031 C 47.738281 29.847656 47.851562 29.957031 47.988281 29.957031 C 48.125 29.957031 48.238281 29.847656 48.238281 29.707031 L 48.238281 28.886719 C 48.238281 28.75 48.125 28.636719 47.988281 28.636719 Z M 47.988281 28.636719 " fill-opacity="1" fill-rule="nonzero"/><path fill="#fdca5c" d="M 60.960938 52.621094 C 60.277344 52.621094 59.722656 53.089844 59.722656 54.785156 C 59.722656 55.621094 59.984375 57.214844 60.960938 59.613281 C 61.9375 57.214844 62.199219 55.621094 62.199219 54.785156 C 62.199219 53.089844 61.644531 52.621094 60.960938 52.621094 Z M 60.960938 52.621094 " fill-opacity="1" fill-rule="nonzero"/><path fill="#fdca5c" d="M 60.960938 52.621094 C 60.535156 52.621094 60.191406 52.910156 60.191406 53.96875 C 60.1875 54.492188 60.351562 55.484375 60.960938 56.976562 C 61.570312 55.484375 61.734375 54.492188 61.734375 53.96875 C 61.734375 52.910156 61.386719 52.621094 60.960938 52.621094 Z M 60.960938 52.621094 " fill-opacity="1" fill-rule="nonzero"/><g clip-path="url(#fe89bd84ec)"><path fill="#fdca5c" d="M 60.960938 49.914062 C 63.789062 49.914062 66.167969 51.28125 66.875 53.140625 C 67.011719 52.585938 67.089844 52 67.089844 51.398438 C 67.089844 47.730469 64.34375 44.757812 60.960938 44.757812 C 57.578125 44.757812 54.832031 47.730469 54.832031 51.398438 C 54.832031 52 54.910156 52.585938 55.046875 53.140625 C 55.753906 51.28125 58.132812 49.914062 60.960938 49.914062 Z M 60.960938 49.914062 " fill-opacity="1" fill-rule="nonzero"/></g><path fill="#ffffff" d="M 63.273438 50.238281 C 64.171875 48.195312 64.667969 45.941406 64.667969 43.570312 C 64.667969 39.605469 63.277344 35.96875 60.957031 33.113281 C 58.640625 35.96875 57.25 39.605469 57.25 43.570312 C 57.253906 45.941406 57.75 48.195312 58.648438 50.238281 Z M 63.273438 50.238281 " fill-opacity="1" fill-rule="nonzero"/><path fill="#f77b55" d="M 58.144531 48.949219 C 58.296875 49.386719 58.464844 49.816406 58.648438 50.238281 L 63.273438 50.238281 C 63.460938 49.816406 63.625 49.386719 63.777344 48.949219 Z M 58.144531 48.949219 " fill-opacity="1" fill-rule="nonzero"/><path fill="#ffffff" d="M 63.867188 52.363281 L 58.054688 52.363281 L 58.996094 50.238281 L 62.925781 50.238281 Z M 63.867188 52.363281 " fill-opacity="1" fill-rule="nonzero"/><path fill="#fdca5c" d="M 60.433594 49.558594 C 60.433594 50.972656 60.636719 52.25 60.960938 53.140625 C 61.285156 52.25 61.488281 50.972656 61.488281 49.558594 C 61.488281 48.140625 61.285156 46.867188 60.960938 45.976562 C 60.636719 46.867188 60.433594 48.140625 60.433594 49.558594 Z M 60.433594 49.558594 " fill-opacity="1" fill-rule="nonzero"/><path fill="#ffffff" d="M 62.382812 40.902344 C 62.382812 41.683594 61.746094 42.320312 60.960938 42.320312 C 60.175781 42.320312 59.539062 41.683594 59.539062 40.898438 C 59.539062 40.117188 60.175781 39.484375 60.960938 39.480469 C 61.746094 39.480469 62.378906 40.117188 62.382812 40.902344 Z M 62.382812 40.902344 " fill-opacity="1" fill-rule="nonzero"/><path fill="#f77b55" d="M 60.957031 33.113281 C 59.90625 34.410156 59.042969 35.871094 58.417969 37.449219 L 63.5 37.449219 C 62.875 35.871094 62.015625 34.410156 60.957031 33.113281 Z M 60.957031 33.113281 " fill-opacity="1" fill-rule="nonzero"/><path fill="#232e38" d="M 60.960938 59.863281 C 60.859375 59.863281 60.769531 59.800781 60.730469 59.707031 C 59.59375 56.925781 59.472656 55.335938 59.472656 54.785156 C 59.472656 53.296875 59.910156 52.488281 60.773438 52.382812 C 60.84375 52.375 60.910156 52.394531 60.960938 52.4375 C 61.011719 52.394531 61.078125 52.375 61.148438 52.382812 C 62.015625 52.484375 62.449219 53.289062 62.449219 54.785156 C 62.449219 55.472656 62.285156 57.03125 61.191406 59.707031 C 61.15625 59.800781 61.0625 59.863281 60.960938 59.863281 Z M 60.960938 52.824219 C 60.925781 52.851562 60.882812 52.871094 60.832031 52.878906 C 60.621094 52.902344 59.972656 52.984375 59.972656 54.785156 C 59.972656 55.269531 60.074219 56.597656 60.960938 58.933594 C 61.847656 56.601562 61.949219 55.269531 61.949219 54.785156 C 61.953125 52.976562 61.304688 52.902344 61.089844 52.878906 C 61.042969 52.871094 60.996094 52.851562 60.960938 52.824219 Z M 60.960938 52.824219 " fill-opacity="1" fill-rule="nonzero"/><path fill="#232e38" d="M 60.960938 57.226562 C 60.859375 57.226562 60.769531 57.167969 60.730469 57.074219 C 60.042969 55.390625 59.9375 54.40625 59.9375 53.96875 C 59.9375 53.621094 59.9375 52.558594 60.753906 52.390625 C 60.828125 52.375 60.90625 52.394531 60.960938 52.441406 C 61.019531 52.394531 61.09375 52.375 61.171875 52.390625 C 61.710938 52.503906 61.984375 53.035156 61.984375 53.96875 C 61.984375 54.40625 61.882812 55.390625 61.191406 57.074219 C 61.152344 57.167969 61.0625 57.226562 60.960938 57.226562 Z M 60.960938 52.828125 C 60.929688 52.851562 60.894531 52.867188 60.855469 52.878906 C 60.578125 52.933594 60.4375 53.304688 60.4375 53.96875 C 60.4375 54.25 60.496094 54.996094 60.960938 56.285156 C 61.429688 54.996094 61.484375 54.25 61.484375 53.96875 C 61.484375 53.300781 61.34375 52.933594 61.070312 52.878906 C 61.027344 52.867188 60.992188 52.851562 60.960938 52.828125 Z M 60.960938 52.828125 " fill-opacity="1" fill-rule="nonzero"/><path fill="#232e38" d="M 55.050781 53.390625 C 55.042969 53.390625 55.039062 53.390625 55.035156 53.390625 C 54.925781 53.382812 54.832031 53.308594 54.808594 53.203125 C 54.660156 52.621094 54.585938 52.015625 54.585938 51.398438 C 54.585938 49.167969 55.589844 47.066406 57.277344 45.777344 C 57.386719 45.695312 57.542969 45.714844 57.625 45.824219 C 57.710938 45.933594 57.6875 46.089844 57.578125 46.175781 C 56.015625 47.367188 55.082031 49.320312 55.082031 51.398438 C 55.082031 51.730469 55.105469 52.054688 55.152344 52.375 C 55.824219 51.304688 57.054688 50.4375 58.578125 49.996094 C 58.710938 49.957031 58.847656 50.03125 58.886719 50.164062 C 58.925781 50.296875 58.847656 50.433594 58.71875 50.472656 C 57.035156 50.964844 55.75 51.992188 55.28125 53.226562 C 55.246094 53.324219 55.152344 53.390625 55.050781 53.390625 Z M 55.050781 53.390625 " fill-opacity="1" fill-rule="nonzero"/><g clip-path="url(#963a42b0ec)"><path fill="#232e38" d="M 66.875 53.390625 C 66.769531 53.390625 66.675781 53.324219 66.640625 53.226562 C 66.171875 51.996094 64.890625 50.96875 63.207031 50.476562 C 63.074219 50.4375 62.996094 50.300781 63.035156 50.167969 C 63.074219 50.035156 63.214844 49.960938 63.347656 50 C 64.867188 50.441406 66.097656 51.304688 66.769531 52.375 C 66.816406 52.050781 66.839844 51.722656 66.839844 51.398438 C 66.839844 49.320312 65.90625 47.367188 64.339844 46.171875 C 64.230469 46.085938 64.210938 45.929688 64.292969 45.820312 C 64.378906 45.710938 64.535156 45.691406 64.644531 45.773438 C 66.332031 47.0625 67.339844 49.167969 67.339844 51.398438 C 67.339844 52 67.265625 52.605469 67.117188 53.199219 C 67.089844 53.304688 67 53.382812 66.890625 53.390625 C 66.882812 53.390625 66.878906 53.390625 66.875 53.390625 Z M 66.875 53.390625 " fill-opacity="1" fill-rule="nonzero"/></g><path fill="#232e38" d="M 63.277344 50.488281 L 61.472656 50.488281 C 61.332031 50.488281 61.222656 50.375 61.222656 50.238281 C 61.222656 50.101562 61.332031 49.988281 61.472656 49.988281 L 63.113281 49.988281 C 63.183594 49.820312 63.253906 49.648438 63.320312 49.476562 C 63.355469 49.382812 63.390625 49.289062 63.421875 49.195312 C 63.457031 49.109375 63.484375 49.035156 63.507812 48.957031 L 63.535156 48.886719 C 63.535156 48.875 63.539062 48.867188 63.542969 48.855469 C 63.871094 47.890625 64.109375 46.910156 64.246094 45.9375 C 64.359375 45.175781 64.417969 44.378906 64.417969 43.570312 C 64.417969 41.488281 64.03125 39.457031 63.269531 37.539062 L 63.035156 36.976562 C 62.714844 36.25 62.335938 35.542969 61.914062 34.867188 C 61.867188 34.792969 61.816406 34.71875 61.769531 34.648438 C 61.523438 34.265625 61.253906 33.886719 60.957031 33.511719 C 60.507812 34.09375 60.101562 34.695312 59.746094 35.300781 C 59.644531 35.472656 59.550781 35.644531 59.453125 35.820312 C 59.335938 36.039062 59.222656 36.261719 59.113281 36.488281 L 59.070312 36.585938 C 59.027344 36.671875 58.988281 36.753906 58.949219 36.839844 C 58.914062 36.914062 58.886719 36.980469 58.855469 37.046875 C 58.796875 37.1875 58.738281 37.324219 58.683594 37.460938 L 58.65625 37.535156 C 58.648438 37.546875 58.644531 37.5625 58.636719 37.574219 C 57.882812 39.484375 57.503906 41.5 57.503906 43.570312 C 57.503906 44.359375 57.558594 45.15625 57.675781 45.941406 C 57.867188 47.273438 58.226562 48.578125 58.742188 49.824219 C 58.765625 49.878906 58.789062 49.933594 58.8125 49.988281 L 60.449219 49.988281 C 60.589844 49.988281 60.699219 50.101562 60.699219 50.238281 C 60.699219 50.375 60.589844 50.488281 60.449219 50.488281 L 58.644531 50.488281 C 58.535156 50.488281 58.441406 50.414062 58.410156 50.316406 C 58.363281 50.214844 58.324219 50.117188 58.28125 50.011719 C 57.75 48.734375 57.378906 47.386719 57.179688 46.011719 C 57.0625 45.203125 57.003906 44.382812 57.003906 43.570312 C 57.003906 41.425781 57.402344 39.335938 58.1875 37.355469 C 58.191406 37.34375 58.195312 37.335938 58.199219 37.328125 L 58.21875 37.273438 C 58.277344 37.128906 58.335938 36.988281 58.398438 36.851562 C 58.429688 36.777344 58.460938 36.707031 58.496094 36.632812 C 58.53125 36.546875 58.574219 36.460938 58.617188 36.371094 L 58.660156 36.273438 C 58.773438 36.039062 58.890625 35.808594 59.011719 35.582031 C 59.113281 35.398438 59.210938 35.222656 59.3125 35.050781 C 59.730469 34.335938 60.21875 33.632812 60.761719 32.957031 C 60.808594 32.898438 60.882812 32.863281 60.957031 32.863281 C 61.03125 32.863281 61.105469 32.898438 61.152344 32.957031 C 61.53125 33.421875 61.878906 33.898438 62.183594 34.371094 C 62.234375 34.445312 62.285156 34.527344 62.335938 34.605469 C 62.769531 35.296875 63.160156 36.027344 63.492188 36.78125 L 63.730469 37.351562 C 64.515625 39.332031 64.914062 41.425781 64.914062 43.570312 C 64.914062 44.402344 64.855469 45.222656 64.738281 46.011719 C 64.597656 47.015625 64.351562 48.03125 64.011719 49.03125 C 64.011719 49.03125 64.011719 49.03125 64.011719 49.035156 C 64.007812 49.046875 64 49.066406 63.992188 49.078125 L 63.980469 49.125 C 63.949219 49.207031 63.921875 49.289062 63.890625 49.367188 C 63.859375 49.457031 63.820312 49.554688 63.785156 49.65625 C 63.695312 49.886719 63.601562 50.113281 63.503906 50.339844 C 63.464844 50.429688 63.375 50.488281 63.277344 50.488281 Z M 63.277344 50.488281 " fill-opacity="1" fill-rule="nonzero"/><path fill="#232e38" d="M 60.449219 50.488281 L 58.648438 50.488281 C 58.535156 50.488281 58.441406 50.414062 58.410156 50.316406 C 58.363281 50.214844 58.324219 50.117188 58.28125 50.011719 C 58.152344 49.695312 58.03125 49.375 57.910156 49.03125 C 57.882812 48.953125 57.894531 48.871094 57.941406 48.804688 C 57.988281 48.738281 58.066406 48.699219 58.144531 48.699219 L 60.449219 48.699219 C 60.585938 48.699219 60.695312 48.8125 60.695312 48.949219 C 60.695312 49.085938 60.585938 49.199219 60.449219 49.199219 L 58.5 49.199219 C 58.578125 49.414062 58.660156 49.621094 58.742188 49.824219 C 58.765625 49.878906 58.789062 49.933594 58.8125 49.988281 L 60.449219 49.988281 C 60.589844 49.988281 60.699219 50.101562 60.699219 50.238281 C 60.699219 50.375 60.589844 50.488281 60.449219 50.488281 Z M 60.449219 50.488281 " fill-opacity="1" fill-rule="nonzero"/><path fill="#232e38" d="M 63.277344 50.488281 L 61.472656 50.488281 C 61.332031 50.488281 61.222656 50.375 61.222656 50.238281 C 61.222656 50.101562 61.332031 49.988281 61.472656 49.988281 L 63.113281 49.988281 C 63.183594 49.820312 63.253906 49.648438 63.320312 49.476562 C 63.355469 49.382812 63.390625 49.292969 63.421875 49.199219 L 61.476562 49.199219 C 61.335938 49.199219 61.226562 49.085938 61.226562 48.949219 C 61.226562 48.8125 61.335938 48.699219 61.476562 48.699219 L 63.777344 48.699219 C 63.855469 48.699219 63.933594 48.738281 63.980469 48.804688 C 64.027344 48.871094 64.039062 48.953125 64.011719 49.03125 C 64.011719 49.03125 63.933594 49.261719 63.890625 49.367188 C 63.859375 49.457031 63.824219 49.554688 63.785156 49.65625 C 63.695312 49.886719 63.605469 50.113281 63.503906 50.339844 C 63.464844 50.429688 63.375 50.488281 63.277344 50.488281 Z M 63.277344 50.488281 " fill-opacity="1" fill-rule="nonzero"/><path fill="#232e38" d="M 60.734375 52.609375 L 58.054688 52.609375 C 57.972656 52.609375 57.890625 52.570312 57.847656 52.5 C 57.800781 52.425781 57.792969 52.339844 57.828125 52.261719 L 58.765625 50.136719 C 58.804688 50.046875 58.894531 49.988281 58.992188 49.988281 L 60.449219 49.988281 C 60.589844 49.988281 60.699219 50.101562 60.699219 50.238281 C 60.699219 50.375 60.589844 50.488281 60.449219 50.488281 L 59.15625 50.488281 L 58.4375 52.113281 L 60.734375 52.113281 C 60.871094 52.113281 60.984375 52.222656 60.984375 52.363281 C 60.984375 52.5 60.871094 52.609375 60.734375 52.609375 Z M 60.734375 52.609375 " fill-opacity="1" fill-rule="nonzero"/><path fill="#232e38" d="M 63.867188 52.613281 L 61.191406 52.613281 C 61.050781 52.613281 60.941406 52.503906 60.941406 52.363281 C 60.941406 52.226562 61.050781 52.117188 61.191406 52.117188 L 63.484375 52.117188 L 62.761719 50.488281 L 61.472656 50.488281 C 61.332031 50.488281 61.222656 50.375 61.222656 50.238281 C 61.222656 50.101562 61.332031 49.988281 61.472656 49.988281 L 62.925781 49.988281 C 63.023438 49.988281 63.113281 50.046875 63.15625 50.136719 L 64.09375 52.265625 C 64.128906 52.339844 64.121094 52.429688 64.078125 52.5 C 64.03125 52.570312 63.953125 52.613281 63.867188 52.613281 Z M 63.867188 52.613281 " fill-opacity="1" fill-rule="nonzero"/><path fill="#232e38" d="M 60.960938 53.390625 C 60.855469 53.390625 60.761719 53.324219 60.726562 53.226562 C 60.378906 52.261719 60.183594 50.960938 60.183594 49.558594 C 60.183594 48.152344 60.378906 46.847656 60.726562 45.890625 C 60.761719 45.792969 60.855469 45.726562 60.960938 45.726562 C 61.066406 45.726562 61.160156 45.792969 61.195312 45.890625 C 61.542969 46.847656 61.734375 48.152344 61.738281 49.558594 C 61.734375 50.964844 61.542969 52.265625 61.195312 53.226562 C 61.160156 53.324219 61.066406 53.390625 60.960938 53.390625 Z M 60.960938 46.875 C 60.78125 47.65625 60.683594 48.59375 60.683594 49.558594 C 60.683594 50.519531 60.78125 51.457031 60.960938 52.242188 C 61.140625 51.457031 61.238281 50.523438 61.238281 49.558594 C 61.238281 48.59375 61.140625 47.65625 60.960938 46.875 Z M 60.960938 46.875 " fill-opacity="1" fill-rule="nonzero"/><path fill="#232e38" d="M 60.960938 42.570312 C 60.039062 42.570312 59.289062 41.820312 59.289062 40.898438 C 59.289062 39.980469 60.039062 39.234375 60.960938 39.234375 C 61.878906 39.234375 62.628906 39.980469 62.632812 40.902344 C 62.628906 41.820312 61.882812 42.570312 60.960938 42.570312 Z M 60.960938 39.730469 C 60.316406 39.730469 59.789062 40.257812 59.789062 40.898438 C 59.789062 41.546875 60.316406 42.070312 60.960938 42.070312 C 61.605469 42.070312 62.132812 41.546875 62.132812 40.902344 C 62.128906 40.257812 61.605469 39.730469 60.960938 39.730469 Z M 60.960938 39.730469 " fill-opacity="1" fill-rule="nonzero"/><path fill="#232e38" d="M 63.5 37.699219 L 58.417969 37.699219 C 58.335938 37.699219 58.257812 37.65625 58.210938 37.589844 C 58.167969 37.519531 58.15625 37.433594 58.1875 37.355469 C 58.816406 35.769531 59.683594 34.289062 60.765625 32.957031 C 60.8125 32.898438 60.882812 32.863281 60.957031 32.863281 C 61.035156 32.863281 61.105469 32.898438 61.152344 32.957031 C 62.234375 34.28125 63.101562 35.761719 63.734375 37.355469 C 63.765625 37.433594 63.753906 37.519531 63.707031 37.589844 C 63.660156 37.65625 63.585938 37.699219 63.5 37.699219 Z M 58.789062 37.199219 L 63.128906 37.199219 C 62.570312 35.878906 61.84375 34.640625 60.960938 33.515625 C 60.074219 34.644531 59.347656 35.882812 58.789062 37.199219 Z M 58.789062 37.199219 " fill-opacity="1" fill-rule="nonzero"/><path fill="#232e38" d="M 60.957031 33.363281 C 60.820312 33.363281 60.710938 33.25 60.710938 33.113281 L 60.710938 31.757812 C 60.710938 31.617188 60.820312 31.507812 60.957031 31.507812 C 61.097656 31.507812 61.207031 31.617188 61.207031 31.757812 L 61.207031 33.113281 C 61.207031 33.25 61.097656 33.363281 60.957031 33.363281 Z M 60.957031 33.363281 " fill-opacity="1" fill-rule="nonzero"/><path fill="#232e38" d="M 26.269531 53.390625 C 26.265625 53.390625 26.261719 53.390625 26.257812 53.390625 C 26.148438 53.382812 26.054688 53.308594 26.027344 53.203125 C 25.878906 52.621094 25.804688 52.015625 25.804688 51.398438 C 25.804688 49.167969 26.8125 47.066406 28.496094 45.777344 C 28.605469 45.695312 28.761719 45.714844 28.847656 45.824219 C 28.929688 45.933594 28.910156 46.089844 28.800781 46.175781 C 27.238281 47.367188 26.304688 49.320312 26.304688 51.398438 C 26.304688 51.730469 26.328125 52.054688 26.375 52.375 C 27.046875 51.304688 28.273438 50.4375 29.796875 49.996094 C 29.929688 49.957031 30.070312 50.03125 30.109375 50.164062 C 30.144531 50.296875 30.070312 50.433594 29.9375 50.472656 C 28.253906 50.964844 26.972656 51.992188 26.503906 53.226562 C 26.46875 53.324219 26.375 53.390625 26.269531 53.390625 Z M 26.269531 53.390625 " fill-opacity="1" fill-rule="nonzero"/><path fill="#232e38" d="M 38.09375 53.390625 C 37.992188 53.390625 37.898438 53.324219 37.863281 53.226562 C 37.394531 51.996094 36.109375 50.96875 34.425781 50.476562 C 34.296875 50.4375 34.21875 50.300781 34.257812 50.167969 C 34.296875 50.035156 34.433594 49.960938 34.566406 50 C 36.089844 50.441406 37.320312 51.304688 37.992188 52.375 C 38.035156 52.050781 38.058594 51.726562 38.058594 51.398438 C 38.058594 49.320312 37.125 47.367188 35.5625 46.171875 C 35.453125 46.085938 35.429688 45.929688 35.515625 45.820312 C 35.597656 45.710938 35.753906 45.691406 35.863281 45.773438 C 37.550781 47.0625 38.558594 49.167969 38.558594 51.398438 C 38.558594 52.003906 38.484375 52.609375 38.335938 53.199219 C 38.3125 53.304688 38.21875 53.382812 38.109375 53.390625 C 38.105469 53.390625 38.101562 53.390625 38.09375 53.390625 Z M 38.09375 53.390625 " fill-opacity="1" fill-rule="nonzero"/><path fill="#232e38" d="M 34.496094 50.488281 L 32.695312 50.488281 C 32.554688 50.488281 32.445312 50.375 32.445312 50.238281 C 32.445312 50.101562 32.554688 49.988281 32.695312 49.988281 L 34.332031 49.988281 C 34.40625 49.820312 34.472656 49.648438 34.539062 49.476562 C 34.574219 49.382812 34.613281 49.289062 34.644531 49.195312 C 34.675781 49.113281 34.703125 49.042969 34.726562 48.972656 L 34.757812 48.886719 C 34.757812 48.875 34.761719 48.867188 34.765625 48.855469 C 35.09375 47.894531 35.328125 46.910156 35.46875 45.9375 C 35.582031 45.175781 35.640625 44.378906 35.640625 43.570312 C 35.640625 41.488281 35.253906 39.457031 34.492188 37.539062 L 34.257812 36.976562 C 33.9375 36.25 33.558594 35.539062 33.132812 34.867188 C 33.085938 34.792969 33.039062 34.71875 32.992188 34.648438 C 32.746094 34.265625 32.472656 33.886719 32.179688 33.511719 C 31.730469 34.097656 31.320312 34.695312 30.96875 35.300781 C 30.867188 35.472656 30.773438 35.644531 30.675781 35.820312 C 30.558594 36.039062 30.445312 36.261719 30.335938 36.488281 L 30.292969 36.578125 C 30.25 36.664062 30.210938 36.75 30.171875 36.839844 C 30.136719 36.914062 30.109375 36.980469 30.078125 37.046875 C 30.019531 37.1875 29.960938 37.324219 29.90625 37.460938 L 29.878906 37.535156 C 29.871094 37.550781 29.867188 37.5625 29.859375 37.574219 C 29.105469 39.484375 28.722656 41.5 28.722656 43.570312 C 28.722656 44.355469 28.78125 45.15625 28.898438 45.941406 C 29.089844 47.273438 29.449219 48.578125 29.964844 49.824219 C 29.988281 49.878906 30.011719 49.933594 30.035156 49.988281 L 31.671875 49.988281 C 31.8125 49.988281 31.921875 50.101562 31.921875 50.238281 C 31.921875 50.375 31.8125 50.488281 31.671875 50.488281 L 29.871094 50.488281 C 29.757812 50.488281 29.664062 50.414062 29.632812 50.316406 C 29.585938 50.214844 29.546875 50.117188 29.503906 50.011719 C 28.972656 48.734375 28.601562 47.386719 28.402344 46.011719 C 28.285156 45.203125 28.226562 44.382812 28.226562 43.570312 C 28.226562 41.425781 28.625 39.335938 29.410156 37.355469 C 29.414062 37.347656 29.417969 37.335938 29.421875 37.328125 L 29.441406 37.273438 C 29.5 37.128906 29.558594 36.988281 29.621094 36.851562 C 29.652344 36.777344 29.683594 36.707031 29.71875 36.632812 C 29.757812 36.546875 29.800781 36.453125 29.84375 36.363281 L 29.886719 36.273438 C 30 36.039062 30.113281 35.808594 30.238281 35.582031 C 30.335938 35.398438 30.433594 35.222656 30.539062 35.050781 C 30.953125 34.339844 31.441406 33.632812 31.984375 32.957031 C 32.03125 32.898438 32.105469 32.863281 32.179688 32.863281 C 32.253906 32.863281 32.328125 32.898438 32.375 32.957031 C 32.753906 33.421875 33.101562 33.898438 33.40625 34.371094 C 33.457031 34.445312 33.511719 34.527344 33.558594 34.605469 C 33.992188 35.296875 34.382812 36.027344 34.714844 36.78125 L 34.953125 37.351562 C 35.742188 39.332031 36.140625 41.425781 36.140625 43.570312 C 36.140625 44.402344 36.078125 45.222656 35.960938 46.011719 C 35.820312 47.015625 35.574219 48.03125 35.234375 49.03125 C 35.234375 49.03125 35.234375 49.03125 35.234375 49.035156 C 35.230469 49.050781 35.222656 49.066406 35.21875 49.078125 L 35.199219 49.136719 C 35.171875 49.214844 35.144531 49.292969 35.113281 49.367188 C 35.082031 49.457031 35.046875 49.554688 35.007812 49.65625 C 34.917969 49.886719 34.824219 50.113281 34.726562 50.339844 C 34.6875 50.429688 34.597656 50.488281 34.496094 50.488281 Z M 34.496094 50.488281 " fill-opacity="1" fill-rule="nonzero"/><path fill="#232e38" d="M 31.671875 50.488281 L 29.867188 50.488281 C 29.757812 50.488281 29.664062 50.414062 29.628906 50.316406 C 29.585938 50.214844 29.542969 50.117188 29.503906 50.011719 C 29.371094 49.699219 29.25 49.375 29.132812 49.03125 C 29.105469 48.953125 29.117188 48.871094 29.164062 48.804688 C 29.210938 48.738281 29.285156 48.699219 29.367188 48.699219 L 31.667969 48.699219 C 31.808594 48.699219 31.917969 48.8125 31.917969 48.949219 C 31.917969 49.085938 31.808594 49.199219 31.667969 49.199219 L 29.722656 49.199219 C 29.800781 49.414062 29.882812 49.621094 29.964844 49.824219 C 29.988281 49.878906 30.011719 49.933594 30.035156 49.988281 L 31.671875 49.988281 C 31.808594 49.988281 31.921875 50.101562 31.921875 50.238281 C 31.921875 50.375 31.808594 50.488281 31.671875 50.488281 Z M 31.671875 50.488281 " fill-opacity="1" fill-rule="nonzero"/><path fill="#232e38" d="M 34.496094 50.488281 L 32.695312 50.488281 C 32.554688 50.488281 32.445312 50.375 32.445312 50.238281 C 32.445312 50.101562 32.554688 49.988281 32.695312 49.988281 L 34.332031 49.988281 C 34.40625 49.820312 34.472656 49.648438 34.539062 49.476562 C 34.574219 49.386719 34.609375 49.292969 34.644531 49.199219 L 32.695312 49.199219 C 32.558594 49.199219 32.445312 49.085938 32.445312 48.949219 C 32.445312 48.8125 32.558594 48.699219 32.695312 48.699219 L 34.996094 48.699219 C 35.078125 48.699219 35.152344 48.738281 35.199219 48.804688 C 35.25 48.871094 35.261719 48.953125 35.234375 49.03125 C 35.234375 49.03125 35.152344 49.261719 35.113281 49.367188 C 35.082031 49.457031 35.042969 49.554688 35.007812 49.65625 C 34.917969 49.886719 34.824219 50.113281 34.726562 50.339844 C 34.6875 50.429688 34.597656 50.488281 34.496094 50.488281 Z M 34.496094 50.488281 " fill-opacity="1" fill-rule="nonzero"/><path fill="#232e38" d="M 31.953125 52.609375 L 29.277344 52.609375 C 29.191406 52.609375 29.113281 52.570312 29.066406 52.5 C 29.023438 52.425781 29.015625 52.339844 29.050781 52.261719 L 29.984375 50.136719 C 30.027344 50.046875 30.117188 49.988281 30.214844 49.988281 L 31.671875 49.988281 C 31.808594 49.988281 31.921875 50.101562 31.921875 50.238281 C 31.921875 50.375 31.808594 50.488281 31.671875 50.488281 L 30.378906 50.488281 L 29.660156 52.113281 L 31.953125 52.113281 C 32.09375 52.113281 32.203125 52.222656 32.203125 52.363281 C 32.203125 52.5 32.09375 52.609375 31.953125 52.609375 Z M 31.953125 52.609375 " fill-opacity="1" fill-rule="nonzero"/><path fill="#232e38" d="M 35.089844 52.613281 L 32.410156 52.613281 C 32.273438 52.613281 32.160156 52.503906 32.160156 52.363281 C 32.160156 52.226562 32.273438 52.117188 32.410156 52.117188 L 34.707031 52.117188 L 33.984375 50.488281 L 32.695312 50.488281 C 32.554688 50.488281 32.445312 50.375 32.445312 50.238281 C 32.445312 50.101562 32.554688 49.988281 32.695312 49.988281 L 34.148438 49.988281 C 34.246094 49.988281 34.335938 50.046875 34.375 50.136719 L 35.316406 52.265625 C 35.351562 52.339844 35.34375 52.429688 35.296875 52.5 C 35.253906 52.570312 35.171875 52.613281 35.089844 52.613281 Z M 35.089844 52.613281 " fill-opacity="1" fill-rule="nonzero"/><path fill="#232e38" d="M 32.183594 53.390625 C 32.078125 53.390625 31.984375 53.324219 31.949219 53.226562 C 31.597656 52.261719 31.40625 50.960938 31.40625 49.558594 C 31.40625 48.152344 31.597656 46.847656 31.949219 45.890625 C 31.984375 45.792969 32.078125 45.726562 32.183594 45.726562 C 32.289062 45.726562 32.382812 45.792969 32.417969 45.890625 C 32.765625 46.851562 32.957031 48.152344 32.957031 49.558594 C 32.957031 50.964844 32.765625 52.265625 32.417969 53.226562 C 32.382812 53.324219 32.289062 53.390625 32.183594 53.390625 Z M 32.183594 46.875 C 32.003906 47.65625 31.90625 48.59375 31.90625 49.558594 C 31.90625 50.519531 32.003906 51.457031 32.183594 52.242188 C 32.359375 51.457031 32.457031 50.523438 32.460938 49.558594 C 32.457031 48.59375 32.359375 47.65625 32.183594 46.875 Z M 32.183594 46.875 " fill-opacity="1" fill-rule="nonzero"/><path fill="#232e38" d="M 32.183594 42.570312 C 31.261719 42.570312 30.511719 41.820312 30.511719 40.898438 C 30.511719 39.980469 31.261719 39.234375 32.179688 39.234375 C 33.101562 39.234375 33.851562 39.980469 33.851562 40.902344 C 33.851562 41.820312 33.101562 42.570312 32.183594 42.570312 Z M 32.183594 39.730469 C 31.535156 39.730469 31.011719 40.257812 31.011719 40.898438 C 31.011719 41.546875 31.535156 42.070312 32.183594 42.070312 C 32.828125 42.070312 33.351562 41.546875 33.351562 40.902344 C 33.351562 40.257812 32.828125 39.730469 32.183594 39.730469 Z M 32.183594 39.730469 " fill-opacity="1" fill-rule="nonzero"/><path fill="#232e38" d="M 34.722656 37.699219 L 29.640625 37.699219 C 29.558594 37.699219 29.480469 37.65625 29.433594 37.589844 C 29.386719 37.519531 29.378906 37.433594 29.410156 37.355469 C 30.039062 35.769531 30.90625 34.289062 31.988281 32.957031 C 32.035156 32.898438 32.105469 32.863281 32.179688 32.863281 C 32.253906 32.863281 32.328125 32.898438 32.375 32.957031 C 33.453125 34.28125 34.324219 35.761719 34.957031 37.355469 C 34.984375 37.433594 34.976562 37.519531 34.929688 37.589844 C 34.882812 37.65625 34.804688 37.699219 34.722656 37.699219 Z M 30.011719 37.199219 L 34.351562 37.199219 C 33.792969 35.878906 33.0625 34.640625 32.179688 33.515625 C 31.296875 34.644531 30.570312 35.882812 30.011719 37.199219 Z M 30.011719 37.199219 " fill-opacity="1" fill-rule="nonzero"/><path fill="#232e38" d="M 32.179688 33.363281 C 32.042969 33.363281 31.929688 33.25 31.929688 33.113281 L 31.929688 31.757812 C 31.929688 31.617188 32.042969 31.507812 32.179688 31.507812 C 32.320312 31.507812 32.429688 31.617188 32.429688 31.757812 L 32.429688 33.113281 C 32.429688 33.25 32.320312 33.363281 32.179688 33.363281 Z M 32.179688 33.363281 " fill-opacity="1" fill-rule="nonzero"/><path fill="#232e38" d="M 20.757812 50.96875 C 20.714844 50.96875 20.671875 50.957031 20.632812 50.9375 C 20.554688 50.894531 20.507812 50.808594 20.507812 50.722656 L 20.507812 48.398438 C 20.507812 48.308594 20.554688 48.226562 20.632812 48.179688 C 20.707031 48.136719 20.804688 48.136719 20.882812 48.179688 L 22.898438 49.34375 C 22.972656 49.386719 23.019531 49.46875 23.019531 49.558594 C 23.019531 49.648438 22.972656 49.730469 22.898438 49.773438 L 20.882812 50.9375 C 20.84375 50.957031 20.800781 50.96875 20.757812 50.96875 Z M 21.007812 48.828125 L 21.007812 50.289062 L 22.273438 49.558594 Z M 21.007812 48.828125 " fill-opacity="1" fill-rule="nonzero"/><path fill="#232e38" d="M 43.371094 43.121094 C 43.328125 43.121094 43.285156 43.113281 43.246094 43.089844 L 41.230469 41.925781 C 41.152344 41.882812 41.105469 41.800781 41.105469 41.710938 C 41.105469 41.621094 41.152344 41.539062 41.230469 41.496094 L 43.246094 40.332031 C 43.324219 40.289062 43.417969 40.289062 43.496094 40.332031 C 43.574219 40.378906 43.621094 40.460938 43.621094 40.550781 L 43.621094 42.875 C 43.621094 42.960938 43.574219 43.042969 43.496094 43.089844 C 43.457031 43.113281 43.414062 43.121094 43.371094 43.121094 Z M 41.855469 41.710938 L 43.121094 42.441406 L 43.121094 40.980469 Z M 41.855469 41.710938 " fill-opacity="1" fill-rule="nonzero"/><path fill="#232e38" d="M 26.269531 53.390625 L 22.773438 53.390625 C 22.632812 53.390625 22.523438 53.277344 22.523438 53.140625 L 22.523438 45.976562 C 22.523438 45.839844 22.632812 45.726562 22.773438 45.726562 L 28.648438 45.726562 C 28.785156 45.726562 28.898438 45.839844 28.898438 45.976562 C 28.898438 46.113281 28.785156 46.226562 28.648438 46.226562 L 23.023438 46.226562 L 23.023438 52.890625 L 26.269531 52.890625 C 26.40625 52.890625 26.519531 53.003906 26.519531 53.140625 C 26.519531 53.277344 26.40625 53.390625 26.269531 53.390625 Z M 26.269531 53.390625 " fill-opacity="1" fill-rule="nonzero"/><path fill="#232e38" d="M 29.800781 37.699219 L 22.773438 37.699219 C 22.632812 37.699219 22.523438 37.585938 22.523438 37.449219 L 22.523438 33.113281 C 22.523438 32.972656 22.632812 32.863281 22.773438 32.863281 L 32.179688 32.863281 C 32.316406 32.863281 32.429688 32.972656 32.429688 33.113281 C 32.429688 33.25 32.316406 33.363281 32.179688 33.363281 L 23.023438 33.363281 L 23.023438 37.199219 L 29.800781 37.199219 C 29.9375 37.199219 30.050781 37.3125 30.050781 37.449219 C 30.050781 37.585938 29.9375 37.699219 29.800781 37.699219 Z M 29.800781 37.699219 " fill-opacity="1" fill-rule="nonzero"/><path fill="#232e38" d="M 32.183594 42.570312 L 22.773438 42.570312 C 22.632812 42.570312 22.523438 42.457031 22.523438 42.320312 L 22.523438 39.480469 C 22.523438 39.34375 22.632812 39.234375 22.773438 39.234375 L 32.179688 39.234375 C 32.316406 39.234375 32.429688 39.34375 32.429688 39.480469 C 32.429688 39.621094 32.316406 39.730469 32.179688 39.730469 L 23.023438 39.730469 L 23.023438 42.070312 L 32.183594 42.070312 C 32.320312 42.070312 32.433594 42.183594 32.433594 42.320312 C 32.433594 42.457031 32.320312 42.570312 32.183594 42.570312 Z M 32.183594 42.570312 " fill-opacity="1" fill-rule="nonzero"/><path fill="#232e38" d="M 41.355469 46.222656 L 35.714844 46.222656 C 35.574219 46.222656 35.464844 46.109375 35.464844 45.972656 C 35.464844 45.835938 35.574219 45.722656 35.714844 45.722656 L 41.105469 45.722656 L 41.105469 37.699219 L 34.722656 37.699219 C 34.585938 37.699219 34.472656 37.585938 34.472656 37.449219 C 34.472656 37.3125 34.585938 37.199219 34.722656 37.199219 L 41.355469 37.199219 C 41.492188 37.199219 41.605469 37.3125 41.605469 37.449219 L 41.605469 45.972656 C 41.605469 46.109375 41.492188 46.222656 41.355469 46.222656 Z M 41.355469 46.222656 " fill-opacity="1" fill-rule="nonzero"/><path fill="#232e38" d="M 20.757812 36.691406 C 20.714844 36.691406 20.671875 36.679688 20.632812 36.660156 C 20.554688 36.613281 20.507812 36.53125 20.507812 36.441406 L 20.507812 34.117188 C 20.507812 34.027344 20.554688 33.945312 20.632812 33.902344 C 20.707031 33.859375 20.804688 33.859375 20.882812 33.902344 L 22.898438 35.0625 C 22.972656 35.109375 23.019531 35.191406 23.019531 35.28125 C 23.019531 35.371094 22.972656 35.453125 22.898438 35.496094 L 20.882812 36.660156 C 20.84375 36.679688 20.800781 36.691406 20.757812 36.691406 Z M 21.007812 34.550781 L 21.007812 36.011719 L 22.273438 35.28125 Z M 21.007812 34.550781 " fill-opacity="1" fill-rule="nonzero"/><path fill="#232e38" d="M 20.757812 42.3125 C 20.714844 42.3125 20.671875 42.300781 20.632812 42.28125 C 20.554688 42.234375 20.507812 42.152344 20.507812 42.0625 L 20.507812 39.738281 C 20.507812 39.648438 20.554688 39.566406 20.632812 39.523438 C 20.707031 39.480469 20.804688 39.480469 20.882812 39.523438 L 22.898438 40.683594 C 22.972656 40.730469 23.019531 40.8125 23.019531 40.902344 C 23.019531 40.992188 22.972656 41.074219 22.898438 41.117188 L 20.882812 42.28125 C 20.84375 42.300781 20.800781 42.3125 20.757812 42.3125 Z M 21.007812 40.171875 L 21.007812 41.632812 L 22.273438 40.902344 Z M 21.007812 40.171875 " fill-opacity="1" fill-rule="nonzero"/><g clip-path="url(#507b8ae823)"><path fill="#ffffff" d="M 38.984375 63.605469 L 41.464844 62.363281 L 38.984375 61.125 Z M 38.984375 63.605469 " fill-opacity="1" fill-rule="nonzero"/></g><g clip-path="url(#bc0177cbbf)"><path fill="#fdca5c" d="M 8.339844 61.125 L 38.984375 61.125 L 38.984375 63.605469 L 8.339844 63.605469 Z M 8.339844 61.125 " fill-opacity="1" fill-rule="nonzero"/></g><path fill="#232e38" d="M 40.492188 62.847656 L 41.464844 62.363281 L 40.492188 61.878906 Z M 40.492188 62.847656 " fill-opacity="1" fill-rule="nonzero"/><g clip-path="url(#12f38d79f2)"><path fill="#ffffff" d="M 10.421875 61.125 L 11.300781 61.125 L 11.300781 63.605469 L 10.421875 63.605469 Z M 10.421875 61.125 " fill-opacity="1" fill-rule="nonzero"/></g><g clip-path="url(#4fab02f38c)"><path fill="#f77b55" d="M 8.339844 61.125 L 10.421875 61.125 L 10.421875 63.605469 L 8.339844 63.605469 Z M 8.339844 61.125 " fill-opacity="1" fill-rule="nonzero"/></g><g clip-path="url(#419b34744b)"><path fill="#232e38" d="M 38.984375 63.855469 C 38.9375 63.855469 38.890625 63.839844 38.851562 63.816406 C 38.777344 63.769531 38.734375 63.691406 38.734375 63.605469 L 38.734375 61.125 C 38.734375 61.039062 38.777344 60.957031 38.851562 60.914062 C 38.925781 60.867188 39.015625 60.863281 39.09375 60.902344 L 41.578125 62.140625 C 41.660156 62.183594 41.714844 62.269531 41.714844 62.363281 C 41.714844 62.460938 41.660156 62.546875 41.578125 62.585938 L 39.09375 63.828125 C 39.058594 63.84375 39.019531 63.855469 38.984375 63.855469 Z M 39.230469 61.527344 L 39.230469 63.199219 L 40.90625 62.363281 Z M 39.230469 61.527344 " fill-opacity="1" fill-rule="nonzero"/></g><g clip-path="url(#91c47829fd)"><path fill="#232e38" d="M 38.984375 63.855469 L 8.339844 63.855469 C 8.203125 63.855469 8.089844 63.742188 8.089844 63.605469 L 8.089844 61.125 C 8.089844 60.988281 8.203125 60.875 8.339844 60.875 L 38.984375 60.875 C 39.121094 60.875 39.230469 60.988281 39.230469 61.125 L 39.230469 63.605469 C 39.230469 63.742188 39.121094 63.855469 38.984375 63.855469 Z M 8.589844 63.355469 L 38.734375 63.355469 L 38.734375 61.375 L 8.589844 61.375 Z M 8.589844 63.355469 " fill-opacity="1" fill-rule="nonzero"/></g><g clip-path="url(#e51cc3550e)"><path fill="#232e38" d="M 38.984375 62.613281 L 11.300781 62.613281 C 11.160156 62.613281 11.050781 62.5 11.050781 62.363281 C 11.050781 62.226562 11.160156 62.113281 11.300781 62.113281 L 38.734375 62.113281 L 38.734375 61.375 L 8.589844 61.375 L 8.589844 62.363281 C 8.589844 62.5 8.476562 62.613281 8.339844 62.613281 C 8.203125 62.613281 8.089844 62.5 8.089844 62.363281 L 8.089844 61.125 C 8.089844 60.988281 8.203125 60.875 8.339844 60.875 L 38.984375 60.875 C 39.121094 60.875 39.230469 60.988281 39.230469 61.125 L 39.230469 62.363281 C 39.230469 62.503906 39.121094 62.613281 38.984375 62.613281 Z M 38.984375 62.613281 " fill-opacity="1" fill-rule="nonzero"/></g><g clip-path="url(#06ff9a4e27)"><path fill="#232e38" d="M 40.492188 63.097656 C 40.449219 63.097656 40.402344 63.085938 40.363281 63.0625 C 40.289062 63.015625 40.242188 62.933594 40.242188 62.847656 L 40.242188 61.878906 C 40.242188 61.792969 40.289062 61.710938 40.363281 61.664062 C 40.4375 61.621094 40.527344 61.617188 40.605469 61.65625 L 41.578125 62.140625 C 41.660156 62.183594 41.714844 62.269531 41.714844 62.367188 C 41.714844 62.460938 41.660156 62.546875 41.578125 62.589844 L 40.605469 63.074219 C 40.570312 63.089844 40.53125 63.097656 40.492188 63.097656 Z M 40.742188 62.28125 L 40.742188 62.445312 L 40.90625 62.363281 Z M 40.742188 62.28125 " fill-opacity="1" fill-rule="nonzero"/></g><g clip-path="url(#9013213e26)"><path fill="#232e38" d="M 11.300781 63.855469 L 10.421875 63.855469 C 10.285156 63.855469 10.171875 63.742188 10.171875 63.605469 L 10.171875 61.125 C 10.171875 60.988281 10.285156 60.875 10.421875 60.875 L 11.300781 60.875 C 11.4375 60.875 11.546875 60.988281 11.546875 61.125 L 11.546875 63.605469 C 11.546875 63.742188 11.4375 63.855469 11.300781 63.855469 Z M 10.671875 63.355469 L 11.050781 63.355469 L 11.050781 61.375 L 10.671875 61.375 Z M 10.671875 63.355469 " fill-opacity="1" fill-rule="nonzero"/></g><g clip-path="url(#31b4f3ef6e)"><path fill="#f77b55" d="M 8.339844 61.125 L 10.421875 61.125 L 10.421875 63.605469 L 8.339844 63.605469 Z M 8.339844 61.125 " fill-opacity="1" fill-rule="nonzero"/></g><g clip-path="url(#859e984d22)"><path fill="#232e38" d="M 10.421875 63.855469 L 8.339844 63.855469 C 8.203125 63.855469 8.089844 63.742188 8.089844 63.605469 L 8.089844 61.125 C 8.089844 60.988281 8.203125 60.875 8.339844 60.875 L 10.421875 60.875 C 10.558594 60.875 10.671875 60.988281 10.671875 61.125 L 10.671875 63.605469 C 10.671875 63.742188 10.558594 63.855469 10.421875 63.855469 Z M 8.589844 63.355469 L 10.171875 63.355469 L 10.171875 61.375 L 8.589844 61.375 Z M 8.589844 63.355469 " fill-opacity="1" fill-rule="nonzero"/></g><g clip-path="url(#cc1beb13a2)"><path fill="#f77b55" d="M 26.855469 20.726562 L 56.609375 39.730469 L 54.074219 43.691406 L 24.320312 24.6875 Z M 26.855469 20.726562 " fill-opacity="1" fill-rule="nonzero"/><path fill="#232e38" d="M 54.074219 43.941406 C 54.027344 43.941406 53.980469 43.929688 53.9375 43.902344 L 24.183594 24.898438 C 24.128906 24.863281 24.089844 24.808594 24.074219 24.742188 C 24.058594 24.679688 24.074219 24.609375 24.109375 24.554688 L 26.644531 20.59375 C 26.71875 20.476562 26.875 20.441406 26.988281 20.515625 L 56.746094 39.519531 C 56.800781 39.558594 56.839844 39.613281 56.855469 39.675781 C 56.867188 39.742188 56.855469 39.808594 56.820312 39.867188 L 54.285156 43.828125 C 54.234375 43.902344 54.15625 43.941406 54.074219 43.941406 Z M 24.664062 24.613281 L 53.996094 43.347656 L 56.265625 39.808594 L 26.929688 21.070312 Z M 24.664062 24.613281 " fill-opacity="1" fill-rule="nonzero"/></g><path fill="#232e38" d="M 27 22.929688 C 26.957031 22.929688 26.910156 22.917969 26.867188 22.890625 C 26.75 22.816406 26.714844 22.664062 26.792969 22.546875 L 27.636719 21.226562 C 27.710938 21.109375 27.867188 21.078125 27.980469 21.148438 C 28.097656 21.226562 28.132812 21.378906 28.058594 21.496094 L 27.210938 22.816406 C 27.164062 22.890625 27.082031 22.929688 27 22.929688 Z M 27 22.929688 " fill-opacity="1" fill-rule="nonzero"/><path fill="#232e38" d="M 28.984375 24.199219 C 28.9375 24.199219 28.890625 24.183594 28.851562 24.15625 C 28.734375 24.082031 28.699219 23.929688 28.773438 23.8125 L 29.621094 22.492188 C 29.695312 22.375 29.847656 22.34375 29.964844 22.417969 C 30.082031 22.492188 30.117188 22.644531 30.042969 22.761719 L 29.195312 24.082031 C 29.148438 24.15625 29.066406 24.199219 28.984375 24.199219 Z M 28.984375 24.199219 " fill-opacity="1" fill-rule="nonzero"/><path fill="#232e38" d="M 30.96875 25.464844 C 30.921875 25.464844 30.875 25.453125 30.835938 25.425781 C 30.71875 25.351562 30.683594 25.195312 30.757812 25.082031 L 31.605469 23.761719 C 31.679688 23.644531 31.832031 23.609375 31.949219 23.683594 C 32.066406 23.757812 32.097656 23.914062 32.023438 24.027344 L 31.179688 25.347656 C 31.132812 25.425781 31.050781 25.464844 30.96875 25.464844 Z M 30.96875 25.464844 " fill-opacity="1" fill-rule="nonzero"/><path fill="#232e38" d="M 32.953125 26.730469 C 32.90625 26.730469 32.859375 26.71875 32.816406 26.691406 C 32.703125 26.617188 32.667969 26.464844 32.742188 26.347656 L 33.585938 25.027344 C 33.660156 24.910156 33.816406 24.878906 33.933594 24.953125 C 34.046875 25.023438 34.082031 25.179688 34.007812 25.296875 L 33.164062 26.617188 C 33.113281 26.691406 33.035156 26.730469 32.953125 26.730469 Z M 32.953125 26.730469 " fill-opacity="1" fill-rule="nonzero"/><path fill="#232e38" d="M 34.9375 28 C 34.890625 28 34.84375 27.984375 34.800781 27.960938 C 34.683594 27.886719 34.652344 27.730469 34.726562 27.613281 L 35.570312 26.292969 C 35.644531 26.175781 35.800781 26.144531 35.917969 26.21875 C 36.03125 26.292969 36.066406 26.445312 35.992188 26.5625 L 35.148438 27.882812 C 35.097656 27.957031 35.019531 28 34.9375 28 Z M 34.9375 28 " fill-opacity="1" fill-rule="nonzero"/><path fill="#232e38" d="M 36.917969 29.265625 C 36.875 29.265625 36.828125 29.253906 36.785156 29.226562 C 36.667969 29.152344 36.636719 28.996094 36.710938 28.882812 L 37.554688 27.5625 C 37.628906 27.445312 37.785156 27.410156 37.898438 27.484375 C 38.015625 27.558594 38.050781 27.714844 37.976562 27.828125 L 37.128906 29.152344 C 37.082031 29.226562 37.003906 29.265625 36.917969 29.265625 Z M 36.917969 29.265625 " fill-opacity="1" fill-rule="nonzero"/><path fill="#232e38" d="M 38.902344 30.53125 C 38.855469 30.53125 38.8125 30.519531 38.769531 30.492188 C 38.652344 30.417969 38.617188 30.265625 38.691406 30.148438 L 39.539062 28.828125 C 39.613281 28.710938 39.765625 28.679688 39.882812 28.753906 C 40 28.828125 40.035156 28.980469 39.960938 29.097656 L 39.113281 30.417969 C 39.066406 30.492188 38.984375 30.53125 38.902344 30.53125 Z M 38.902344 30.53125 " fill-opacity="1" fill-rule="nonzero"/><path fill="#232e38" d="M 40.886719 31.800781 C 40.839844 31.800781 40.792969 31.785156 40.753906 31.761719 C 40.636719 31.683594 40.601562 31.53125 40.675781 31.414062 L 41.523438 30.09375 C 41.597656 29.976562 41.75 29.945312 41.867188 30.019531 C 41.984375 30.09375 42.015625 30.246094 41.941406 30.363281 L 41.097656 31.683594 C 41.050781 31.757812 40.96875 31.800781 40.886719 31.800781 Z M 40.886719 31.800781 " fill-opacity="1" fill-rule="nonzero"/><path fill="#232e38" d="M 42.871094 33.066406 C 42.824219 33.066406 42.777344 33.054688 42.734375 33.027344 C 42.621094 32.953125 42.585938 32.796875 42.660156 32.683594 L 43.507812 31.363281 C 43.582031 31.246094 43.734375 31.210938 43.851562 31.285156 C 43.96875 31.359375 44 31.515625 43.925781 31.628906 L 43.082031 32.953125 C 43.03125 33.027344 42.953125 33.066406 42.871094 33.066406 Z M 42.871094 33.066406 " fill-opacity="1" fill-rule="nonzero"/><path fill="#232e38" d="M 44.855469 34.332031 C 44.808594 34.332031 44.761719 34.320312 44.71875 34.292969 C 44.601562 34.21875 44.570312 34.066406 44.644531 33.949219 L 45.488281 32.628906 C 45.5625 32.511719 45.71875 32.480469 45.835938 32.550781 C 45.949219 32.628906 45.984375 32.78125 45.910156 32.898438 L 45.066406 34.21875 C 45.015625 34.292969 44.9375 34.332031 44.855469 34.332031 Z M 44.855469 34.332031 " fill-opacity="1" fill-rule="nonzero"/><path fill="#232e38" d="M 46.835938 35.601562 C 46.792969 35.601562 46.746094 35.585938 46.703125 35.5625 C 46.585938 35.488281 46.554688 35.332031 46.628906 35.214844 L 47.472656 33.894531 C 47.546875 33.78125 47.703125 33.746094 47.816406 33.820312 C 47.933594 33.894531 47.96875 34.046875 47.894531 34.164062 L 47.046875 35.484375 C 47 35.558594 46.921875 35.601562 46.835938 35.601562 Z M 46.835938 35.601562 " fill-opacity="1" fill-rule="nonzero"/><path fill="#232e38" d="M 49.8125 37.5 C 49.765625 37.5 49.71875 37.488281 49.679688 37.460938 C 49.5625 37.386719 49.527344 37.234375 49.601562 37.117188 L 50.449219 35.796875 C 50.523438 35.679688 50.675781 35.644531 50.792969 35.71875 C 50.910156 35.792969 50.945312 35.949219 50.871094 36.066406 L 50.023438 37.386719 C 49.976562 37.460938 49.894531 37.5 49.8125 37.5 Z M 49.8125 37.5 " fill-opacity="1" fill-rule="nonzero"/><path fill="#232e38" d="M 51.796875 38.765625 C 51.75 38.765625 51.703125 38.753906 51.664062 38.726562 C 51.546875 38.652344 51.511719 38.5 51.585938 38.382812 L 52.433594 37.0625 C 52.507812 36.945312 52.660156 36.914062 52.777344 36.988281 C 52.894531 37.0625 52.925781 37.214844 52.851562 37.332031 L 52.007812 38.652344 C 51.960938 38.726562 51.878906 38.765625 51.796875 38.765625 Z M 51.796875 38.765625 " fill-opacity="1" fill-rule="nonzero"/><path fill="#232e38" d="M 53.78125 40.035156 C 53.734375 40.035156 53.6875 40.023438 53.644531 39.996094 C 53.53125 39.921875 53.496094 39.765625 53.570312 39.652344 L 54.414062 38.332031 C 54.488281 38.214844 54.644531 38.179688 54.761719 38.253906 C 54.878906 38.328125 54.910156 38.484375 54.835938 38.597656 L 53.992188 39.917969 C 53.941406 39.992188 53.863281 40.035156 53.78125 40.035156 Z M 53.78125 40.035156 " fill-opacity="1" fill-rule="nonzero"/><path fill="#232e38" d="M 28.394531 22.9375 C 28.347656 22.9375 28.300781 22.925781 28.257812 22.898438 C 28.144531 22.824219 28.109375 22.671875 28.183594 22.554688 L 28.628906 21.859375 C 28.703125 21.742188 28.859375 21.710938 28.972656 21.785156 C 29.089844 21.859375 29.125 22.011719 29.050781 22.128906 L 28.605469 22.824219 C 28.554688 22.898438 28.476562 22.9375 28.394531 22.9375 Z M 28.394531 22.9375 " fill-opacity="1" fill-rule="nonzero"/><path fill="#232e38" d="M 30.378906 24.207031 C 30.332031 24.207031 30.285156 24.195312 30.242188 24.167969 C 30.125 24.09375 30.09375 23.9375 30.167969 23.824219 L 30.613281 23.125 C 30.6875 23.011719 30.839844 22.976562 30.957031 23.050781 C 31.074219 23.125 31.105469 23.28125 31.03125 23.394531 L 30.585938 24.089844 C 30.539062 24.164062 30.460938 24.207031 30.378906 24.207031 Z M 30.378906 24.207031 " fill-opacity="1" fill-rule="nonzero"/><path fill="#232e38" d="M 32.359375 25.472656 C 32.316406 25.472656 32.269531 25.460938 32.226562 25.433594 C 32.109375 25.359375 32.078125 25.207031 32.152344 25.089844 L 32.597656 24.394531 C 32.671875 24.277344 32.824219 24.242188 32.941406 24.316406 C 33.058594 24.390625 33.089844 24.546875 33.015625 24.664062 L 32.570312 25.359375 C 32.523438 25.433594 32.441406 25.472656 32.359375 25.472656 Z M 32.359375 25.472656 " fill-opacity="1" fill-rule="nonzero"/><path fill="#232e38" d="M 34.34375 26.738281 C 34.296875 26.738281 34.25 26.726562 34.210938 26.699219 C 34.09375 26.625 34.058594 26.472656 34.132812 26.355469 L 34.578125 25.660156 C 34.652344 25.542969 34.808594 25.511719 34.925781 25.585938 C 35.039062 25.660156 35.074219 25.8125 35 25.929688 L 34.554688 26.625 C 34.507812 26.699219 34.425781 26.738281 34.34375 26.738281 Z M 34.34375 26.738281 " fill-opacity="1" fill-rule="nonzero"/><path fill="#232e38" d="M 36.328125 28.007812 C 36.28125 28.007812 36.234375 27.996094 36.195312 27.96875 C 36.078125 27.894531 36.042969 27.738281 36.117188 27.621094 L 36.5625 26.925781 C 36.636719 26.8125 36.792969 26.777344 36.90625 26.851562 C 37.023438 26.925781 37.058594 27.078125 36.984375 27.195312 L 36.539062 27.890625 C 36.492188 27.964844 36.410156 28.007812 36.328125 28.007812 Z M 36.328125 28.007812 " fill-opacity="1" fill-rule="nonzero"/><path fill="#232e38" d="M 38.3125 29.273438 C 38.265625 29.273438 38.21875 29.261719 38.175781 29.234375 C 38.0625 29.160156 38.027344 29.007812 38.101562 28.890625 L 38.546875 28.195312 C 38.621094 28.078125 38.777344 28.042969 38.890625 28.117188 C 39.007812 28.191406 39.042969 28.347656 38.96875 28.464844 L 38.523438 29.160156 C 38.472656 29.234375 38.394531 29.273438 38.3125 29.273438 Z M 38.3125 29.273438 " fill-opacity="1" fill-rule="nonzero"/><path fill="#232e38" d="M 40.296875 30.539062 C 40.25 30.539062 40.203125 30.527344 40.160156 30.5 C 40.042969 30.425781 40.011719 30.273438 40.085938 30.15625 L 40.53125 29.460938 C 40.605469 29.34375 40.757812 29.3125 40.875 29.386719 C 40.992188 29.460938 41.027344 29.613281 40.953125 29.730469 L 40.503906 30.425781 C 40.457031 30.5 40.378906 30.539062 40.296875 30.539062 Z M 40.296875 30.539062 " fill-opacity="1" fill-rule="nonzero"/><path fill="#232e38" d="M 42.277344 31.808594 C 42.234375 31.808594 42.1875 31.796875 42.144531 31.769531 C 42.027344 31.695312 41.992188 31.539062 42.070312 31.425781 L 42.515625 30.726562 C 42.589844 30.613281 42.742188 30.578125 42.859375 30.652344 C 42.976562 30.726562 43.007812 30.882812 42.933594 30.996094 L 42.488281 31.691406 C 42.441406 31.765625 42.359375 31.808594 42.277344 31.808594 Z M 42.277344 31.808594 " fill-opacity="1" fill-rule="nonzero"/><path fill="#232e38" d="M 44.261719 33.074219 C 44.214844 33.074219 44.167969 33.0625 44.128906 33.035156 C 44.011719 32.960938 43.976562 32.808594 44.050781 32.691406 L 44.496094 31.996094 C 44.570312 31.878906 44.726562 31.84375 44.84375 31.917969 C 44.957031 31.992188 44.992188 32.148438 44.917969 32.265625 L 44.472656 32.960938 C 44.425781 33.035156 44.34375 33.074219 44.261719 33.074219 Z M 44.261719 33.074219 " fill-opacity="1" fill-rule="nonzero"/><path fill="#232e38" d="M 46.246094 34.339844 C 46.199219 34.339844 46.152344 34.328125 46.113281 34.300781 C 45.996094 34.226562 45.960938 34.074219 46.035156 33.957031 L 46.480469 33.261719 C 46.554688 33.144531 46.710938 33.113281 46.828125 33.1875 C 46.941406 33.261719 46.976562 33.414062 46.902344 33.53125 L 46.457031 34.226562 C 46.410156 34.300781 46.328125 34.339844 46.246094 34.339844 Z M 46.246094 34.339844 " fill-opacity="1" fill-rule="nonzero"/><path fill="#232e38" d="M 48.230469 35.609375 C 48.183594 35.609375 48.136719 35.59375 48.09375 35.570312 C 47.980469 35.496094 47.945312 35.339844 48.019531 35.222656 L 48.464844 34.527344 C 48.539062 34.414062 48.695312 34.378906 48.808594 34.453125 C 48.925781 34.527344 48.960938 34.679688 48.886719 34.796875 L 48.441406 35.492188 C 48.390625 35.566406 48.3125 35.609375 48.230469 35.609375 Z M 48.230469 35.609375 " fill-opacity="1" fill-rule="nonzero"/><path fill="#232e38" d="M 49.222656 36.242188 C 49.175781 36.242188 49.128906 36.230469 49.085938 36.203125 C 48.972656 36.128906 48.9375 35.972656 49.011719 35.859375 L 49.457031 35.164062 C 49.53125 35.046875 49.6875 35.011719 49.800781 35.085938 C 49.917969 35.160156 49.953125 35.316406 49.878906 35.429688 L 49.433594 36.125 C 49.382812 36.203125 49.304688 36.242188 49.222656 36.242188 Z M 49.222656 36.242188 " fill-opacity="1" fill-rule="nonzero"/><path fill="#232e38" d="M 51.203125 37.507812 C 51.160156 37.507812 51.113281 37.496094 51.070312 37.46875 C 50.953125 37.394531 50.921875 37.242188 50.996094 37.125 L 51.441406 36.429688 C 51.515625 36.3125 51.667969 36.28125 51.785156 36.355469 C 51.902344 36.429688 51.933594 36.582031 51.859375 36.699219 L 51.414062 37.394531 C 51.367188 37.46875 51.289062 37.507812 51.203125 37.507812 Z M 51.203125 37.507812 " fill-opacity="1" fill-rule="nonzero"/><path fill="#232e38" d="M 53.1875 38.777344 C 53.144531 38.777344 53.097656 38.761719 53.054688 38.738281 C 52.9375 38.664062 52.90625 38.507812 52.980469 38.390625 L 53.421875 37.695312 C 53.5 37.582031 53.652344 37.546875 53.769531 37.621094 C 53.886719 37.695312 53.917969 37.847656 53.84375 37.964844 L 53.398438 38.660156 C 53.351562 38.734375 53.269531 38.777344 53.1875 38.777344 Z M 53.1875 38.777344 " fill-opacity="1" fill-rule="nonzero"/><path fill="#232e38" d="M 55.171875 40.042969 C 55.125 40.042969 55.078125 40.03125 55.039062 40.003906 C 54.921875 39.929688 54.886719 39.773438 54.960938 39.660156 L 55.40625 38.964844 C 55.480469 38.847656 55.636719 38.8125 55.753906 38.886719 C 55.867188 38.960938 55.902344 39.117188 55.828125 39.230469 L 55.382812 39.929688 C 55.335938 40.003906 55.253906 40.042969 55.171875 40.042969 Z M 55.171875 40.042969 " fill-opacity="1" fill-rule="nonzero"/></svg>