<svg xmlns="http://www.w3.org/2000/svg" width="1080" height="1080" viewBox="0 0 1080 1080" version="1.1"><path d="M 536.037 253.174 C 527.790 255.540, 522.714 262.581, 522.714 271.653 C 522.714 277.776, 524.874 281.974, 530.265 286.331 C 534.918 290.092, 543.770 291.204, 548.711 288.649 C 551.743 287.081, 551.743 287.081, 563.622 301.742 C 570.155 309.806, 576.079 317.199, 576.786 318.172 C 577.863 319.654, 577.725 320.619, 575.932 324.133 C 572.865 330.146, 573.471 340.091, 577.252 345.805 C 586.699 360.080, 608.775 357.754, 615.447 341.782 C 621.677 326.868, 608.625 309.967, 592.736 312.374 C 590.406 312.727, 587.698 313.125, 586.717 313.258 C 585.484 313.425, 580.838 308.446, 571.645 297.104 C 558.407 280.770, 558.360 280.694, 559.322 277.088 C 560.288 273.468, 560.288 273.468, 573.894 274.660 C 581.377 275.315, 589.170 275.885, 591.211 275.926 C 594.684 275.995, 594.993 276.261, 596.015 280.057 C 597.251 284.647, 602.833 291.338, 607.425 293.734 C 611.995 296.119, 621.578 295.903, 626.500 293.306 C 634.257 289.212, 638.425 282.425, 638.357 274 C 638.214 256.564, 619.263 246.429, 604.761 256.035 C 602.372 257.617, 599.395 260.732, 598.145 262.956 C 596.895 265.180, 595.338 266.994, 594.686 266.987 C 594.034 266.980, 585.850 266.326, 576.500 265.534 C 560.658 264.192, 559.399 263.938, 558.013 261.797 C 555.323 257.643, 551.251 254.392, 547.228 253.186 C 542.637 251.811, 540.794 251.809, 536.037 253.174 M 686.500 272.573 C 681.974 274.926, 678.938 278.063, 676.890 282.500 C 674.608 287.445, 674.520 291.760, 676.596 296.949 C 678.527 301.773, 682.053 296.969, 648.143 335.718 L 621.787 365.838 617.143 363.804 C 614.590 362.686, 609.575 361.552, 606 361.286 C 593.923 360.386, 582.076 367.209, 576.180 378.460 C 573.900 382.810, 573.536 384.732, 573.519 392.500 C 573.496 403.179, 575.569 408.411, 582.610 415.452 C 591.255 424.097, 607.031 426.779, 617.770 421.428 C 625.111 417.769, 632.574 409.274, 634.615 402.252 C 637.057 393.851, 636.123 384.651, 632.104 377.530 C 629.012 372.051, 628.976 371.847, 630.715 369.653 C 631.697 368.414, 644.404 353.797, 658.953 337.171 C 678.509 314.823, 685.809 307.118, 686.953 307.616 C 687.804 307.986, 690.251 308.562, 692.391 308.895 C 696.282 309.500, 696.282 309.500, 700.624 321.500 C 703.013 328.100, 704.974 333.984, 704.983 334.576 C 704.993 335.167, 703.836 336.742, 702.413 338.076 C 693.779 346.166, 696.267 362.524, 706.961 367.980 C 711.576 370.335, 718.640 370.611, 723.282 368.619 C 727.204 366.937, 732.499 361.503, 733.939 357.685 C 736.346 351.300, 734.048 342.059, 728.868 337.298 C 725.932 334.598, 719.917 332, 716.604 332 C 713.971 332, 713.889 331.835, 707.548 313.927 C 704.866 306.354, 704.866 306.354, 707.867 303.142 C 716.403 294.004, 713.752 278.447, 702.750 273.121 C 697.570 270.613, 690.712 270.382, 686.500 272.573 M 748.030 299.529 C 740.285 303.010, 736.570 309.374, 737.199 318.078 C 738.125 330.879, 750.044 338.705, 762.265 334.536 C 767.030 332.910, 767.030 332.910, 777.969 342.607 C 787.108 350.709, 788.751 352.597, 787.954 354.086 C 785.249 359.140, 787.881 370.949, 792.644 375.129 C 797.850 379.699, 806.366 381.332, 812.611 378.958 C 815.137 377.997, 815.758 378.317, 820.533 383.033 C 825.714 388.150, 825.714 388.150, 824.265 392.325 C 819.976 404.683, 829.294 417.440, 842.526 417.326 C 863.892 417.142, 868.044 386.429, 847.510 380.460 C 843.204 379.208, 841.704 379.190, 837.288 380.335 C 832.113 381.678, 832.113 381.678, 827.088 376.589 C 822.062 371.500, 822.062 371.500, 823.623 367 C 827.697 355.262, 818.043 342.039, 805.376 342.006 C 804.207 342.003, 801.329 342.678, 798.980 343.507 C 793.987 345.269, 794.097 345.332, 780.662 332.807 C 773.150 325.803, 772.870 325.383, 773.912 322.685 C 776.577 315.789, 773.021 305.521, 766.424 301.057 C 761.867 297.974, 753.107 297.246, 748.030 299.529 M 333.358 316.954 C 320.773 319.955, 314.698 333.983, 321.188 345.057 C 324.122 350.065, 329.301 353.428, 335.683 354.470 C 340.794 355.305, 347.640 352.602, 351.758 348.124 C 354.416 345.235, 354.646 345.177, 359.250 346.240 C 362.933 347.091, 364 347.778, 364 349.302 C 364 356.239, 369.474 364.671, 376.206 368.105 C 380.440 370.265, 387.482 370.987, 392.500 369.776 C 395.452 369.064, 395.722 369.356, 409.419 388.146 C 421.123 404.200, 423.150 407.499, 422.155 408.870 C 418.289 414.194, 416.788 417.077, 415.357 421.925 C 409.133 443.018, 428.837 465.089, 450.343 461.114 C 461.347 459.080, 469.181 453.327, 473.953 443.778 C 476.546 438.589, 477 436.550, 476.999 430.090 C 476.997 413.546, 466.615 401.639, 449.659 398.734 C 444.002 397.765, 442.509 397.882, 436.877 399.731 C 433.370 400.882, 430.473 401.751, 430.441 401.662 C 430.408 401.573, 424.079 392.941, 416.376 382.479 C 402.371 363.459, 402.371 363.459, 404.196 360.479 C 405.200 358.841, 406.513 355.702, 407.115 353.505 C 410.476 341.232, 399.160 327.035, 385.993 327.006 C 379.687 326.992, 371.837 331.035, 368.483 336.025 C 366.793 338.540, 366.427 338.644, 362.591 337.707 C 357.111 336.368, 356.358 335.641, 355.611 330.969 C 354.690 325.208, 349.138 319.415, 342.707 317.506 C 339.919 316.678, 337.381 316.046, 337.068 316.102 C 336.756 316.159, 335.086 316.542, 333.358 316.954 M 283 423.594 C 274.883 427.110, 270 434.680, 270 443.748 C 270 458.766, 284.016 469.145, 298.017 464.494 C 300.733 463.592, 303.528 463.195, 304.228 463.612 C 304.927 464.029, 310 467.735, 315.500 471.848 C 321 475.961, 325.579 479.369, 325.675 479.422 C 325.772 479.475, 325.368 481.326, 324.778 483.536 C 323.345 488.905, 324.529 496.026, 327.608 500.564 C 330.112 504.254, 330.112 504.254, 324.908 512.377 C 322.045 516.845, 318.811 521.987, 317.720 523.806 C 315.774 527.050, 315.639 527.099, 310.451 526.451 C 298.525 524.960, 287.690 533.119, 285.580 545.180 C 283.251 558.489, 296.591 571.638, 310.332 569.577 C 324.292 567.484, 333.001 551.769, 326.999 539.500 C 325.923 537.300, 324.533 534.808, 323.911 533.963 C 322.998 532.723, 324.237 530.179, 330.306 520.832 C 337.833 509.238, 337.833 509.238, 341.985 509.997 C 361.972 513.652, 375.353 489.907, 361.912 474.637 C 354.952 466.730, 344.594 464.882, 335.067 469.848 C 330.918 472.011, 330.918 472.011, 320.709 464.342 C 315.094 460.125, 310.331 456.541, 310.125 456.378 C 309.918 456.216, 310.481 454.255, 311.375 452.021 C 314.682 443.755, 312.779 434.742, 306.371 428.325 C 300.225 422.170, 290.727 420.247, 283 423.594 M 854.500 424.866 C 848.820 427.453, 843.176 434.045, 842.380 439.024 C 842.024 441.251, 841.005 443.450, 840.116 443.912 C 839.227 444.373, 831.750 445.963, 823.500 447.445 C 815.250 448.927, 807.569 450.361, 806.430 450.633 C 804.774 451.028, 803.989 450.302, 802.499 446.998 C 799.901 441.237, 791.196 433.558, 784.888 431.463 C 777.875 429.134, 766.150 429.820, 760.137 432.912 C 753.766 436.188, 747.460 443.155, 745.061 449.567 C 737.529 469.698, 750.678 490.800, 771.958 492.730 C 788.270 494.209, 803.745 481.592, 805.663 465.250 C 806.001 462.363, 806.328 459.992, 806.389 459.982 C 806.450 459.973, 814.600 458.430, 824.500 456.555 C 841.222 453.386, 842.594 453.263, 843.823 454.822 C 847.263 459.184, 847.194 459.412, 838.844 471.298 C 830.743 482.829, 830.743 482.829, 825.542 482.292 C 812.006 480.895, 801.984 492.791, 805.447 506.144 C 810.308 524.882, 837.575 524.198, 841.837 505.230 C 842.887 500.557, 841.876 494.266, 839.489 490.623 C 838.096 488.498, 838.448 487.764, 846.064 476.939 C 852.501 467.787, 854.549 465.543, 856.305 465.714 C 867.691 466.827, 873.673 465.161, 879.197 459.342 C 889.066 448.943, 885.732 431.406, 872.685 425.090 C 867.322 422.494, 859.909 422.402, 854.500 424.866 M 596.637 445.465 C 588.850 448.241, 584 455.126, 584 463.403 C 584 471.389, 588.010 477.755, 594.893 480.696 C 598.285 482.146, 598.285 482.146, 597.649 490.323 C 597.298 494.820, 597.009 499.655, 597.006 501.067 C 597.001 503.299, 596.285 503.860, 591.542 505.355 C 583.576 507.866, 576.851 513.609, 573.110 521.096 C 565.263 536.799, 571.895 556.310, 587.732 564.112 C 594.569 567.479, 608.548 567.525, 614.795 564.200 C 621.407 560.680, 626.665 555.382, 629.720 549.161 C 632.077 544.360, 632.493 542.284, 632.451 535.500 C 632.395 526.397, 630.395 520.798, 625.007 514.661 C 621.282 510.418, 614.812 506.339, 609.466 504.863 C 606.846 504.140, 606 503.442, 606.420 502.349 C 606.739 501.517, 607 496.682, 607 491.603 C 607 482.370, 607 482.370, 610.606 480.651 C 612.748 479.629, 614.677 479.279, 615.356 479.789 C 616.597 480.719, 648.058 505.940, 649.188 506.910 C 649.566 507.234, 649.018 509.975, 647.970 513 C 640.664 534.093, 655.538 555.500, 677.500 555.500 C 695.022 555.500, 709 541.522, 709 524 C 709 504.762, 691.598 489.892, 672.686 492.970 C 667.054 493.886, 661.873 496.038, 658.787 498.742 C 657.845 499.567, 656.376 499.975, 655.523 499.647 C 654.670 499.320, 646.321 492.891, 636.971 485.360 C 622.207 473.470, 620.071 471.394, 620.735 469.584 C 622.101 465.861, 621.359 458.597, 619.178 454.334 C 616.703 449.499, 613.127 446.678, 607.500 445.119 C 602.483 443.730, 601.409 443.764, 596.637 445.465 M 476.500 467.842 C 470.919 470.501, 467.037 474.982, 464.935 481.191 C 463.141 486.491, 463.141 486.491, 449.880 488.702 L 436.618 490.914 433.209 486.931 C 428.759 481.732, 424.701 479.727, 418.526 479.674 C 399.978 479.514, 392.205 504.198, 407.707 514.029 C 410.100 515.547, 413.613 517.080, 415.514 517.437 C 423.754 518.982, 434.073 512.496, 436.235 504.412 C 437.512 499.638, 436.254 500.090, 457.351 496.825 C 464.543 495.712, 465.285 495.757, 466.184 497.365 C 466.725 498.330, 468.473 500.608, 470.070 502.427 C 472.973 505.733, 472.973 505.733, 467.736 517.852 C 462.500 529.970, 462.500 529.970, 458.566 529.985 C 445.845 530.033, 436.835 543.423, 441.429 555.453 C 444.075 562.383, 451.933 567.989, 459 567.989 C 465.838 567.989, 475 561.561, 477.060 555.317 C 478.912 549.708, 477.752 542.520, 474.177 537.449 L 471.074 533.047 476.194 521.024 C 481.313 509, 481.313 509, 486.034 509 C 495.701 509, 503.807 502.911, 506.508 493.622 C 509.206 484.338, 505.857 474.945, 497.877 469.414 C 492.445 465.651, 482.617 464.928, 476.500 467.842 M 783 533.877 C 774.006 536.831, 766.465 543.514, 762.687 551.878 C 761.179 555.216, 760.589 558.597, 760.563 564.048 C 760.531 570.601, 760.959 572.475, 763.813 578.272 C 766.613 583.960, 771.379 589.216, 776.854 592.653 C 777.049 592.775, 776.337 595.490, 775.271 598.687 C 773.351 604.446, 773.292 604.505, 768.775 605.151 C 762.320 606.074, 757.462 608.643, 753.571 613.188 C 741.758 626.989, 751.578 648.104, 769.882 648.260 C 789.766 648.430, 799.417 624.467, 784.919 610.925 C 781.823 608.032, 781.823 608.032, 783.742 602.266 C 785.660 596.500, 785.660 596.500, 793.080 595.857 C 797.161 595.504, 801.787 594.708, 803.361 594.090 C 811.582 590.858, 819.701 582.068, 822.215 573.678 C 823.388 569.760, 823.388 569.760, 828.928 570.332 C 831.975 570.646, 834.605 571.314, 834.772 571.816 C 836.063 575.690, 841.299 581.914, 844.575 583.469 C 856.589 589.169, 868.822 583.566, 872.005 570.904 C 874.106 562.542, 869.192 552.649, 861.298 549.351 C 857.144 547.615, 849.842 547.622, 845.671 549.364 C 842.135 550.841, 837.354 555.940, 835.888 559.795 C 835.272 561.414, 834.458 562.006, 833.404 561.602 C 832.542 561.271, 829.848 561, 827.418 561 C 823.453 561, 823 560.760, 823 558.660 C 823 554.982, 817.260 544.435, 813.425 541.069 C 807.184 535.589, 802.261 533.683, 793.500 533.355 C 789.100 533.191, 784.375 533.426, 783 533.877 M 132.340 571.435 C 122.449 574.528, 117 581.790, 117 591.878 C 117 612.921, 141.679 621.876, 155.422 605.820 L 158.850 601.815 172.925 605.088 L 187 608.361 187.022 613.431 C 187.035 616.373, 187.906 620.388, 189.097 623 C 191.150 627.500, 191.150 627.500, 186.335 631.880 C 183.687 634.289, 179.680 637.767, 177.432 639.610 C 173.343 642.959, 173.343 642.959, 169.460 640.980 C 161.196 636.766, 149.228 639.261, 143.321 646.427 C 131.107 661.244, 141.452 682, 161.050 682 C 174.289 682, 184.647 667.635, 180.674 654.784 C 179.216 650.067, 179.216 650.067, 188.149 642.428 C 197.081 634.788, 197.081 634.788, 200.791 637.202 C 207.058 641.281, 211.178 642.502, 218.500 642.451 C 230.605 642.366, 241.680 635.317, 247.117 624.236 C 250.566 617.205, 250.464 605.533, 246.886 598 C 243.554 590.983, 237.976 585.417, 231 582.148 C 223.804 578.776, 212.881 578.611, 205.830 581.769 C 199.914 584.419, 193.421 590.254, 190.907 595.182 C 189.836 597.282, 188.631 599.004, 188.230 599.008 C 187.828 599.013, 181.313 597.581, 173.750 595.828 C 160.388 592.729, 160 592.565, 160 590.016 C 160 585.700, 155.274 577.458, 151.217 574.696 C 147.611 572.241, 141.054 569.948, 138 570.072 C 137.175 570.106, 134.628 570.719, 132.340 571.435 M 341.035 583.202 C 333.478 586.103, 326.001 593.725, 323.055 601.531 C 320.303 608.820, 320.596 618.039, 323.810 625.304 C 325.921 630.076, 325.921 630.076, 322.211 633.410 C 312.352 642.267, 312.383 642.250, 309.152 640.578 C 300.643 636.178, 291.044 637.861, 283.900 645.005 C 276.663 652.241, 275.366 660.813, 280.093 670.153 C 284.033 677.938, 294.183 682.990, 302.919 681.514 C 315.796 679.338, 324.474 664.249, 319.582 652.541 C 318.163 649.146, 318.163 649.146, 325.035 643.038 L 331.908 636.931 337.452 640.060 C 341.282 642.221, 344.859 643.358, 349.015 643.735 C 354.077 644.194, 355.111 644.616, 355.529 646.390 C 360.966 669.479, 360.955 669.301, 357.230 672.429 C 353.109 675.890, 350.053 682.091, 350.022 687.054 C 349.991 692.123, 354.275 700.033, 358.660 703 C 361.747 705.089, 363.528 705.500, 369.505 705.500 C 375.801 705.500, 377.096 705.164, 380.337 702.692 C 389.856 695.432, 390.674 681.622, 382.068 673.500 C 380.319 671.850, 376.784 669.789, 374.211 668.919 C 369.532 667.338, 369.532 667.338, 366.764 655.005 C 365.241 648.221, 364.109 642.621, 364.248 642.560 C 364.387 642.498, 366.750 640.954, 369.500 639.129 C 381.992 630.836, 386.842 616.933, 382.429 602.071 C 380.236 594.688, 371.715 586.062, 363.712 583.124 C 356.332 580.415, 348.222 580.443, 341.035 583.202 M 525.500 620.338 C 518.707 622.589, 515.434 624.723, 510.701 629.988 C 504.642 636.727, 502.622 642.903, 503.201 652.912 C 503.693 661.402, 507.074 669.201, 512.095 673.426 C 514.781 675.687, 514.781 675.687, 509.141 685.410 C 503.500 695.133, 503.500 695.133, 499.492 694.541 C 497.176 694.200, 493.525 694.540, 490.844 695.347 C 480.808 698.367, 475 705.976, 475 716.104 C 475 733.942, 495.255 744.314, 509.248 733.642 C 518.621 726.492, 520.730 715.720, 514.851 705.026 L 511.703 699.299 517.101 689.844 C 522.117 681.059, 522.677 680.438, 525 681.094 C 529.517 682.371, 540.665 682.029, 545.056 680.480 C 547.424 679.645, 550.873 677.809, 552.718 676.401 C 556.074 673.842, 556.074 673.842, 560.939 677.552 C 565.547 681.065, 565.750 681.418, 564.780 684.201 C 562.103 691.882, 566.599 702.175, 574.250 705.879 C 586.309 711.717, 600.298 704.406, 601.752 691.507 C 602.761 682.555, 596.733 673.408, 588.277 671.060 C 582.932 669.576, 580.104 669.770, 575.300 671.951 C 571.101 673.857, 571.101 673.857, 566.496 670.341 C 563.964 668.408, 562.114 666.302, 562.386 665.663 C 569.924 647.940, 564.150 630.113, 548.372 622.393 C 541.880 619.217, 531.656 618.299, 525.500 620.338 M 857.500 645.894 C 847.918 648.472, 840.281 654.720, 835.948 663.526 C 832.506 670.521, 832.472 683.310, 835.878 690.236 C 845.287 709.369, 870.824 714.454, 885.843 700.184 C 891.659 694.659, 894.893 688.698, 895.680 682.056 C 896.249 677.249, 896.249 677.249, 901.375 676.633 C 909.236 675.689, 909.564 675.775, 911.451 679.280 C 913.218 682.560, 913.218 682.560, 903.142 698.030 L 893.066 713.500 885.783 713.537 C 877.283 713.581, 871.816 715.910, 867.835 721.184 C 862.450 728.318, 861.610 736.474, 865.418 744.652 C 868.255 750.744, 873.108 754.433, 880.444 756.075 C 893.557 759.009, 906 748.822, 906 735.152 C 906 729.862, 904.092 723.865, 901.498 720.998 C 900.242 719.610, 901.302 717.538, 910.458 703.493 C 920.843 687.562, 920.843 687.562, 927.244 687.531 C 932.521 687.505, 934.374 687.017, 937.802 684.749 C 943.157 681.206, 946 675.666, 946 668.774 C 946 656.164, 935.545 647.987, 922.541 650.426 C 916.532 651.554, 909 659.567, 909 664.834 C 909 666.477, 908.015 666.873, 902.421 667.472 C 898.803 667.859, 895.708 668.024, 895.544 667.838 C 895.380 667.652, 894.271 665.567, 893.080 663.205 C 887.764 652.666, 877.954 646.041, 866.755 645.429 C 863.315 645.240, 859.150 645.450, 857.500 645.894 M 786.005 665.250 C 776.143 671.178, 772.781 683.547, 778.334 693.481 C 780.810 697.912, 780.810 697.912, 770.838 711.206 C 760.866 724.500, 760.866 724.500, 755.164 724.166 C 744.535 723.542, 735.872 729.697, 734.396 738.922 C 733.823 742.500, 733.823 742.500, 724.258 744.750 L 714.692 747.001 711.152 742.864 C 697.833 727.304, 673 736.346, 673 756.756 C 673 773.978, 693.561 784.081, 707.292 773.607 C 712.262 769.817, 715.961 763.743, 715.984 759.333 C 716 756.175, 716.023 756.161, 724.874 754.083 C 729.754 752.937, 734.283 752, 734.938 752 C 735.593 752, 737.319 753.414, 738.773 755.142 C 741.701 758.621, 748.141 761.947, 752 761.972 C 766.383 762.067, 775.989 747.383, 770.071 734.349 C 768.186 730.197, 768.186 730.197, 778.147 716.644 C 787.605 703.775, 788.235 703.139, 790.619 704.045 C 797.464 706.648, 806.683 704.372, 812.371 698.675 C 823.117 687.913, 820.124 670.049, 806.541 663.880 C 799.934 660.878, 792.446 661.378, 786.005 665.250 M 413.500 694.487 C 400.886 700.412, 398.282 716.894, 408.538 725.899 C 411.905 728.855, 417.410 730.984, 421.718 730.994 C 423.109 730.998, 424.464 732.008, 425.352 733.702 C 426.725 736.323, 426.623 736.533, 421.934 740.749 C 407.965 753.308, 407.811 774.275, 421.595 786.981 C 436.104 800.354, 456.425 798.265, 468.729 782.133 C 470.536 779.763, 472.515 775.839, 473.126 773.412 C 474.237 769, 474.237 769, 479.619 769 C 483.128 769, 485 769.416, 485 770.196 C 485 772.888, 490.491 779.059, 494.698 781.096 C 509.850 788.431, 526.546 773.192, 520.553 757.499 C 514.728 742.246, 493.104 740.812, 486.267 755.224 C 484.573 758.794, 484.290 758.949, 479.433 758.974 C 474.365 759, 474.365 759, 472.643 753.538 C 470.371 746.330, 462.907 738.093, 455.770 734.920 C 451.800 733.155, 448.541 732.549, 442.558 732.464 C 434.821 732.353, 434.593 732.279, 433.698 729.595 C 432.930 727.289, 433.195 726.403, 435.326 724.170 C 438.586 720.752, 440.006 716.942, 439.978 711.685 C 439.953 706.999, 437.276 700.382, 434.355 697.788 C 429.255 693.260, 419.425 691.704, 413.500 694.487" stroke="none" fill="#fc944c" fill-rule="evenodd"/><path d="M 454.332 268.785 C 432.691 276.540, 426.129 302.854, 441.574 319.950 C 445.313 324.088, 453.420 329, 456.512 329 C 457.730 329, 457.975 329.742, 457.585 332.250 C 457.307 334.038, 456.794 338.875, 456.447 343 C 455.814 350.500, 455.814 350.500, 450.854 352.852 C 441.843 357.125, 437.860 367.108, 441.434 376.465 C 446.924 390.842, 466.058 392.941, 474.702 380.114 C 480.649 371.289, 477.558 358.300, 468.330 353.343 C 464.898 351.500, 464.898 351.500, 465.483 345 C 466.871 329.582, 466.526 330.445, 471.786 329.242 C 474.377 328.649, 476.551 328.239, 476.617 328.332 C 476.683 328.424, 483.115 339.591, 490.909 353.146 C 505.081 377.792, 505.081 377.792, 502.626 381.410 C 493.332 395.105, 505.461 413.294, 522.022 410.496 C 526.954 409.663, 533.594 404.200, 535.653 399.282 C 538.919 391.480, 536.226 381.562, 529.434 376.382 C 526.667 374.272, 524.339 373.517, 519.229 373.074 L 512.608 372.500 498.464 347.947 L 484.320 323.394 488.562 318.708 C 490.895 316.131, 493.523 311.912, 494.402 309.333 C 496.503 303.166, 496.439 293.703, 494.255 287.585 C 491.994 281.254, 485.070 273.576, 478.718 270.357 C 471.890 266.897, 461.475 266.226, 454.332 268.785 M 278.500 343.890 C 269.009 348.271, 264.544 359.187, 268.435 368.500 C 269.871 371.935, 269.871 371.935, 254.185 388.787 C 238.500 405.639, 238.500 405.639, 234.151 404.337 C 225.562 401.767, 215.598 406.269, 211.913 414.384 C 208.183 422.598, 210.531 432.252, 217.563 437.616 C 220.970 440.214, 222.103 440.500, 229 440.500 C 235.897 440.500, 237.030 440.214, 240.437 437.616 C 247.141 432.503, 249.732 423.081, 246.538 415.436 C 245.075 411.935, 245.075 411.935, 260.714 395.218 C 270.646 384.601, 276.928 378.634, 277.927 378.867 C 284.140 380.317, 291.009 380.043, 294.593 378.204 C 298.417 376.243, 298.417 376.243, 308.458 383.784 C 313.981 387.932, 318.663 391.453, 318.862 391.609 C 319.062 391.764, 318.499 394.021, 317.612 396.624 C 315.532 402.731, 315.554 412.336, 317.664 418.527 C 320.082 425.623, 328.728 434.093, 336.500 436.979 C 341.372 438.789, 343.838 439.111, 349.619 438.691 C 361.338 437.840, 370.188 431.912, 375.545 421.324 C 379.453 413.600, 379.728 402.218, 376.194 394.500 C 373.070 387.678, 366.920 381.686, 359.729 378.459 C 354.392 376.064, 352.820 375.813, 345.612 376.209 C 337.640 376.647, 335.357 377.441, 326.916 382.711 C 324.365 384.304, 324.203 384.227, 314.213 376.661 C 304.094 368.998, 304.094 368.998, 304.670 364.137 C 305.813 354.487, 300.573 346.139, 291.724 343.511 C 285.220 341.579, 283.393 341.632, 278.500 343.890 M 745.976 379.250 C 740.305 382.119, 735.324 388.659, 734.469 394.358 C 733.815 398.718, 733.807 398.725, 728.197 399.980 C 724.446 400.820, 722.465 400.896, 722.237 400.211 C 721.027 396.580, 715.162 389.673, 710.725 386.652 C 694.129 375.354, 672.844 381.355, 663.864 399.864 C 660.602 406.588, 660.677 418.556, 664.025 425.500 C 667.541 432.792, 674.454 439.276, 681.559 441.945 C 701.109 449.290, 721.746 436.498, 724.494 415.330 C 725.166 410.160, 725.166 410.160, 730.245 408.941 C 735.325 407.723, 735.325 407.723, 738.090 411.110 C 740.848 414.490, 740.850 414.506, 739.018 417.499 C 738.007 419.150, 732.977 427.475, 727.840 436 C 718.500 451.500, 718.500 451.500, 712.423 451.503 C 707.508 451.505, 705.571 452.018, 702.294 454.187 C 688.075 463.596, 693.508 486.838, 710.371 488.738 C 724.639 490.347, 735.843 476.134, 730.462 463.254 C 729.616 461.230, 728.293 458.876, 727.523 458.025 C 726.299 456.672, 727.540 454.145, 737.333 438.055 L 748.544 419.633 754.807 419.889 C 766.087 420.349, 774.343 414.077, 776.991 403.036 C 779.251 393.617, 773.921 383.038, 764.715 378.669 C 759.635 376.258, 751.384 376.514, 745.976 379.250 M 196 446.876 C 182.166 451.425, 173.030 463.491, 173.010 477.239 C 173.004 481.434, 173.709 485.845, 174.879 488.924 C 176.758 493.869, 176.758 493.869, 168.215 500.684 C 157.636 509.124, 157.181 509.395, 155.684 508.153 C 155.018 507.600, 152.371 506.619, 149.802 505.972 C 145.909 504.991, 144.315 505.067, 140.227 506.425 C 122.040 512.466, 122.931 537.979, 141.500 542.869 C 155.106 546.451, 168.994 531.635, 164.099 518.759 C 163.143 516.245, 162.280 517.107, 179.145 503.726 C 182.789 500.835, 182.789 500.835, 186.847 503.774 C 193.988 508.947, 199.264 509.676, 215.672 507.754 C 217.511 507.539, 220.535 511.749, 235.406 535.226 L 252.969 562.952 250.485 567.625 C 242.216 583.175, 257.796 601.126, 273.768 594.452 C 285.250 589.655, 289.439 576.306, 282.672 566.080 C 279.116 560.708, 273.654 558.006, 266.290 557.978 L 260.500 557.955 242.772 529.835 L 225.043 501.715 228.166 498.158 C 233.508 492.074, 235.471 486.513, 235.460 477.500 C 235.443 464.406, 229.626 454.962, 217.849 448.905 C 213.152 446.489, 200.695 445.333, 196 446.876 M 877.239 479.335 C 857.072 486.649, 859.052 516.419, 880 520.851 C 882.475 521.374, 885.530 521.735, 886.790 521.651 C 888.736 521.523, 889.597 522.684, 892.529 529.391 L 895.978 537.282 892.610 541.010 C 890.757 543.061, 888.681 546.437, 887.996 548.513 C 886.327 553.569, 887.311 562.148, 890.070 566.614 C 892.970 571.305, 899.390 575.879, 904.143 576.639 C 908.210 577.289, 908.497 577.738, 909.528 585.061 C 910.157 589.525, 910.087 589.677, 906.208 592.244 C 898.250 597.510, 894.848 609.678, 898.866 618.500 C 904.556 630.994, 919.761 635.353, 931.068 627.733 C 942.352 620.129, 943.472 603.418, 933.342 593.803 C 930.285 590.902, 924.218 588, 921.209 588 C 919.723 588, 919.121 586.753, 918.189 581.750 C 917.359 577.291, 917.336 575.395, 918.110 575.134 C 920.584 574.300, 926.256 568.419, 928.130 564.745 C 930.883 559.348, 930.804 551.291, 927.939 545.373 C 924.313 537.883, 913.947 531.974, 907.079 533.483 C 904.436 534.063, 904.188 533.761, 900.880 525.917 C 897.434 517.747, 897.434 517.747, 900.364 514.623 C 904.407 510.315, 906 506.037, 906 499.492 C 906 484.483, 891.351 474.217, 877.239 479.335 M 533 516.594 C 519.532 522.428, 515.562 540.114, 525.325 550.786 C 527.416 553.072, 527.416 553.072, 522.793 562.378 C 518.170 571.685, 518.170 571.685, 512.335 571.645 C 500.457 571.564, 490 581.214, 490 592.257 C 490 595.561, 489.950 595.595, 480.789 598.591 L 471.579 601.603 468.511 597.581 C 453.427 577.804, 424.658 580.672, 414.133 603 C 409.118 613.638, 411.335 627.708, 419.449 636.733 C 436.657 655.872, 467.154 648.076, 473.607 622.889 C 474.486 619.458, 474.976 615.239, 474.696 613.513 C 474.187 610.375, 474.187 610.375, 483.589 607.277 C 492.992 604.180, 492.992 604.180, 495.003 607.004 C 497.851 611.003, 506.354 615.005, 511.946 614.978 C 530.666 614.888, 540.461 592.207, 527.777 578.322 C 525.787 576.145, 525.787 576.145, 530.571 567.072 C 535.354 558, 535.354 558, 540.709 558 C 564.236 558, 571.680 527.654, 550.790 516.908 C 546.287 514.592, 537.962 514.445, 533 516.594 M 722.358 543.994 C 714.508 545.767, 708.676 551.922, 707.423 559.756 C 706.801 563.647, 706.454 564.017, 702.129 565.401 C 659.365 579.086, 663.101 578.255, 659.683 574.837 C 649.825 564.979, 633.979 568.234, 628.548 581.232 C 624.705 590.429, 628.995 600.723, 638.500 605.110 C 643.776 607.545, 649.383 607.477, 654.680 604.913 C 658.992 602.826, 658.992 602.826, 662.851 605.882 C 666.710 608.939, 666.710 608.939, 664.748 614.719 C 661.176 625.245, 664.383 638.157, 672.613 646.387 C 681.903 655.677, 696.732 658.301, 708.208 652.686 C 722.973 645.463, 729.810 628.986, 724.578 613.235 C 722.243 606.204, 714.700 597.995, 707.770 594.941 C 697.416 590.379, 681.467 592.616, 674.959 599.543 C 672.722 601.925, 672.722 601.925, 668.469 598.870 C 664.408 595.954, 664.239 595.627, 664.734 591.658 C 665.019 589.371, 665.533 587.223, 665.876 586.884 C 666.634 586.135, 708.048 573, 709.650 573 C 710.275 573, 711.032 573.640, 711.332 574.422 C 711.632 575.204, 713.946 577.056, 716.473 578.537 C 724.990 583.528, 735.148 581.542, 741.436 573.657 C 744.225 570.159, 744.500 569.158, 744.500 562.500 C 744.500 555.842, 744.225 554.841, 741.436 551.343 C 736.712 545.419, 729.075 542.477, 722.358 543.994 M 648.637 663.465 C 636.857 667.664, 632.446 682.085, 639.764 692.468 L 642.747 696.700 637.441 707.850 C 632.135 719, 632.135 719, 627.717 719 C 618.566 719, 611.534 723.281, 607.549 731.278 C 606.147 734.091, 605 737.595, 605 739.064 C 605 741.474, 604.507 741.832, 599.952 742.733 C 594.904 743.731, 594.904 743.731, 593.037 740.116 C 590.607 735.410, 584.650 729.802, 579 726.902 C 572.541 723.586, 559.607 723.538, 552.500 726.802 C 546.180 729.705, 540.574 735.086, 537.188 741.500 C 534.943 745.752, 534.544 747.771, 534.524 755 C 534.504 762.139, 534.920 764.381, 537.123 769 C 540.168 775.386, 544.499 780.033, 550.931 783.814 C 555.066 786.245, 556.449 786.500, 565.500 786.500 C 574.054 786.500, 576.131 786.163, 579.863 784.172 C 589.879 778.828, 597 767.603, 597 757.160 C 597 752.395, 597 752.395, 602.250 751.308 C 605.405 750.655, 607.638 750.591, 607.846 751.147 C 608.036 751.657, 609.330 753.427, 610.721 755.081 C 618.261 764.041, 632.892 764.771, 641.847 756.633 C 648.902 750.222, 650.645 738.166, 645.727 729.789 C 644.206 727.198, 642.333 724.723, 641.565 724.289 C 640.451 723.660, 641.294 721.124, 645.736 711.750 C 651.303 700, 651.303 700, 655.336 700 C 664.536 700, 672.719 692.672, 673.752 683.507 C 674.761 674.555, 668.733 665.408, 660.277 663.060 C 655.412 661.709, 653.363 661.780, 648.637 663.465 M 209.332 669.790 C 196.214 674.478, 188.481 685.702, 188.521 700 C 188.567 716.863, 200.421 729.569, 217.237 730.781 C 225.527 731.379, 231.636 729.784, 238.108 725.332 L 242.957 721.996 251.890 728.528 C 260.822 735.059, 260.822 735.059, 259.805 738.745 C 256.436 750.944, 265.286 763.844, 278.243 765.620 C 285.357 766.595, 290.842 764.496, 296.588 758.599 L 301.676 753.377 312.088 755.676 C 317.815 756.940, 323.470 758.203, 324.656 758.482 C 326.408 758.896, 326.934 759.973, 327.470 764.245 C 327.832 767.135, 329.494 772.347, 331.164 775.826 C 336.602 787.157, 348.886 793.923, 361.882 792.744 C 380.994 791.011, 394.303 772.441, 389.597 754.074 C 386.856 743.374, 379.713 735.347, 369.441 731.424 C 363.352 729.099, 351.127 729.832, 345.205 732.878 C 339.134 736, 333.641 741.251, 331.516 745.965 C 330.515 748.184, 329.427 749.987, 329.098 749.970 C 328.769 749.954, 322.887 748.687, 316.027 747.155 C 303.554 744.370, 303.554 744.370, 302.020 739.068 C 298.251 726.043, 284.730 718.743, 273.254 723.538 C 271.230 724.384, 268.881 725.703, 268.035 726.468 C 266.696 727.680, 265.336 727.022, 257.545 721.393 C 252.621 717.836, 248.455 714.788, 248.286 714.619 C 248.117 714.450, 248.658 712.385, 249.489 710.030 C 251.454 704.461, 251.416 694.579, 249.408 688.684 C 247.333 682.595, 240.038 674.563, 233.608 671.289 C 226.780 667.812, 216.624 667.185, 209.332 669.790 M 810.547 723.272 C 795.923 731.555, 795.371 752.268, 809.541 761.025 C 813.945 763.747, 824.512 764.867, 828.029 762.984 C 830.197 761.824, 830.662 762.038, 833.753 765.611 C 840.539 773.458, 840.431 772.802, 836.277 780.899 C 832.980 787.325, 832.556 788.988, 832.556 795.481 C 832.556 801.873, 833 803.682, 836.028 809.618 C 843.196 823.671, 858.422 830.113, 873.591 825.511 C 876.291 824.692, 878.777 824.017, 879.116 824.011 C 879.455 824.005, 881.308 826.022, 883.233 828.494 C 886.734 832.987, 886.734 832.987, 884.367 837.663 C 876.014 854.163, 890.347 873.235, 907.930 869.017 C 910.706 868.351, 914.099 866.923, 915.470 865.845 C 917.964 863.883, 917.964 863.883, 927.982 871.036 C 937.637 877.929, 938 878.325, 938 881.959 C 938 889.418, 945.562 895.003, 952.964 893.010 C 963.767 890.101, 965.400 875.265, 955.437 870.537 C 952.002 868.907, 948.487 868.855, 944.966 870.383 C 943.964 870.817, 940.170 868.665, 934.029 864.178 L 924.626 857.308 924.563 848.833 C 924.507 841.311, 924.189 839.888, 921.740 836.185 C 920.222 833.890, 917.133 830.847, 914.877 829.422 C 910.150 826.438, 901.740 825.198, 897.131 826.805 C 894.196 827.828, 893.934 827.679, 890.539 823.053 L 887.003 818.237 890.454 812.506 C 896.753 802.046, 897.240 791.324, 891.915 780.325 C 889.196 774.708, 881.174 767.588, 875.316 765.592 C 868.826 763.381, 859.193 763.555, 852.761 765.999 C 849.867 767.099, 847.454 767.999, 847.398 767.999 C 847.341 768, 845.221 765.360, 842.687 762.134 C 838.079 756.269, 838.079 756.269, 840.039 752.423 C 842.175 748.233, 842.699 738.968, 841.045 734.617 C 839.610 730.844, 832.928 723.874, 829.282 722.347 C 824.173 720.208, 815.171 720.653, 810.547 723.272" stroke="none" fill="#fcdc5c" fill-rule="evenodd"/></svg>