<svg xmlns="http://www.w3.org/2000/svg" xmlns:xlink="http://www.w3.org/1999/xlink" width="75" zoomAndPan="magnify" viewBox="0 0 56.25 56.249997" height="75" preserveAspectRatio="xMidYMid meet" version="1.0"><defs><clipPath id="9531420779"><path d="M 0 8 L 55 8 L 55 48.269531 L 0 48.269531 Z M 0 8 " clip-rule="nonzero"/></clipPath><clipPath id="8516dfad84"><path d="M 6 17 L 28 17 L 28 48.269531 L 6 48.269531 Z M 6 17 " clip-rule="nonzero"/></clipPath><clipPath id="7648a76b04"><path d="M 0 9 L 8 9 L 8 48.269531 L 0 48.269531 Z M 0 9 " clip-rule="nonzero"/></clipPath><clipPath id="6be4f22917"><path d="M 0 9 L 55 9 L 55 48.269531 L 0 48.269531 Z M 0 9 " clip-rule="nonzero"/></clipPath><clipPath id="1871a7d62e"><path d="M 48 9 L 55 9 L 55 48.269531 L 48 48.269531 Z M 48 9 " clip-rule="nonzero"/></clipPath><clipPath id="e04a21dd16"><path d="M 0 12 L 55 12 L 55 48.269531 L 0 48.269531 Z M 0 12 " clip-rule="nonzero"/></clipPath></defs><g clip-path="url(#9531420779)"><path fill="#f2f2f2" d="M 51.484375 48.125 L 4.011719 48.125 C 2.160156 48.125 0.605469 46.644531 0.605469 44.734375 L 0.605469 11.628906 C 0.605469 11.171875 0.695312 10.734375 0.867188 10.3125 C 1.039062 9.894531 1.289062 9.523438 1.605469 9.203125 C 1.925781 8.878906 2.292969 8.632812 2.710938 8.457031 C 3.128906 8.285156 3.5625 8.195312 4.011719 8.195312 L 51.484375 8.195312 C 53.339844 8.195312 54.894531 9.734375 54.894531 11.628906 L 54.894531 44.691406 C 54.851562 46.648438 53.339844 48.125 51.484375 48.125 Z M 51.484375 48.125 " fill-opacity="1" fill-rule="nonzero"/></g><g clip-path="url(#8516dfad84)"><path fill="#221f1f" d="M 7.394531 48.125 L 27.703125 33.140625 L 27.832031 32.273438 L 6.882812 17.105469 L 6.84375 47.386719 Z M 7.394531 48.125 " fill-opacity="0.098" fill-rule="nonzero"/></g><g clip-path="url(#7648a76b04)"><path fill="#d44c3d" d="M 4.011719 48.125 C 2.132812 48.125 0.605469 46.644531 0.605469 44.734375 L 0.605469 11.582031 C 0.605469 9.671875 2.132812 9.324219 4.011719 9.324219 C 5.894531 9.324219 7.421875 9.71875 7.421875 11.582031 L 7.421875 48.125 Z M 4.011719 48.125 " fill-opacity="1" fill-rule="nonzero"/></g><g clip-path="url(#6be4f22917)"><path fill="#d44c3d" d="M 4.011719 9.84375 C 6.429688 9.84375 6.902344 10.582031 6.902344 11.582031 L 6.902344 47.644531 L 4.011719 47.644531 C 2.417969 47.644531 1.125 46.339844 1.125 44.730469 L 1.125 11.582031 C 1.082031 10.554688 1.597656 9.84375 4.011719 9.84375 Z M 4.011719 9.367188 C 2.132812 9.367188 0.605469 9.757812 0.605469 11.582031 L 0.605469 44.6875 C 0.601562 45.144531 0.683594 45.585938 0.851562 46.011719 C 1.023438 46.433594 1.269531 46.808594 1.589844 47.132812 C 1.910156 47.457031 2.28125 47.703125 2.703125 47.875 C 3.121094 48.046875 3.558594 48.128906 4.011719 48.125 L 7.421875 48.125 L 7.421875 11.582031 C 7.394531 9.714844 5.910156 9.367188 4.011719 9.367188 Z M 51.484375 9.84375 C 53.683594 9.84375 54.375 10.28125 54.375 11.496094 L 54.375 44.777344 C 54.375 46.386719 53.082031 47.691406 51.484375 47.691406 L 48.597656 47.691406 L 48.597656 11.496094 C 48.554688 10.238281 49.285156 9.84375 51.484375 9.84375 Z M 51.484375 9.367188 C 49.589844 9.367188 48.078125 9.625 48.078125 11.496094 L 48.078125 48.167969 L 51.484375 48.167969 C 53.382812 48.167969 54.894531 46.625 54.894531 44.730469 L 54.894531 11.453125 C 54.851562 9.582031 53.339844 9.367188 51.484375 9.367188 Z M 51.484375 9.367188 " fill-opacity="1" fill-rule="nonzero"/></g><g clip-path="url(#1871a7d62e)"><path fill="#d44c3d" d="M 51.484375 48.125 L 48.078125 48.125 L 48.078125 11.496094 C 48.078125 9.585938 49.605469 9.367188 51.484375 9.367188 C 53.367188 9.367188 54.894531 9.628906 54.894531 11.496094 L 54.894531 44.777344 C 54.882812 45.226562 54.789062 45.65625 54.613281 46.066406 C 54.4375 46.480469 54.1875 46.839844 53.867188 47.152344 C 53.550781 47.46875 53.183594 47.707031 52.773438 47.875 C 52.359375 48.042969 51.929688 48.128906 51.484375 48.125 Z M 51.484375 48.125 " fill-opacity="1" fill-rule="nonzero"/></g><g clip-path="url(#e04a21dd16)"><path fill="#221f1f" d="M 36.953125 48.125 L 0.910156 13.035156 L 2.804688 13.816406 L 27.917969 32.027344 L 54.890625 12.0625 L 54.890625 44.777344 C 54.890625 45.230469 54.800781 45.664062 54.628906 46.082031 C 54.453125 46.5 54.207031 46.867188 53.886719 47.1875 C 53.566406 47.503906 53.199219 47.75 52.78125 47.917969 C 52.367188 48.089844 51.933594 48.171875 51.484375 48.167969 Z M 36.953125 48.125 " fill-opacity="0.0784" fill-rule="nonzero"/></g><path fill="#d44c3d" d="M 27.6875 33.183594 L 2.074219 14.453125 C 0.546875 13.324219 0.132812 11.152344 1.253906 9.628906 C 2.375 8.105469 4.527344 7.761719 6.082031 8.890625 L 27.726562 24.753906 L 49.503906 8.675781 C 51.03125 7.546875 53.125 7.894531 54.246094 9.457031 C 55.363281 10.996094 55.019531 13.109375 53.46875 14.238281 Z M 27.6875 33.183594 " fill-opacity="1" fill-rule="nonzero"/><path fill="#d44c3d" d="M 51.484375 8.542969 C 52.390625 8.542969 53.296875 8.976562 53.859375 9.757812 C 54.765625 11.0625 54.503906 12.890625 53.214844 13.863281 L 27.6875 32.578125 L 2.375 14.0625 C 1.082031 13.105469 0.734375 11.234375 1.625 9.957031 C 2.140625 9.175781 3.050781 8.695312 4.039062 8.695312 C 4.683594 8.695312 5.289062 8.871094 5.761719 9.261719 L 27.363281 25.082031 L 27.664062 25.257812 L 27.96875 25.082031 L 49.71875 9.015625 C 50.28125 8.710938 50.839844 8.539062 51.488281 8.539062 Z M 51.484375 8.019531 C 50.796875 8.019531 50.0625 8.195312 49.5 8.667969 L 27.726562 24.753906 L 6.039062 8.847656 C 5.480469 8.410156 4.746094 8.195312 4.011719 8.195312 C 2.9375 8.238281 1.859375 8.71875 1.210938 9.632812 C 0.132812 11.171875 0.566406 13.285156 2.074219 14.414062 L 27.6875 33.183594 L 53.46875 14.234375 C 53.832031 13.964844 54.132812 13.640625 54.367188 13.253906 C 54.601562 12.867188 54.753906 12.449219 54.828125 12.003906 C 54.898438 11.554688 54.886719 11.113281 54.785156 10.671875 C 54.683594 10.230469 54.503906 9.824219 54.246094 9.453125 C 53.554688 8.539062 52.519531 8.015625 51.484375 8.015625 Z M 51.484375 8.019531 " fill-opacity="1" fill-rule="nonzero"/></svg>