<svg xmlns="http://www.w3.org/2000/svg" xmlns:xlink="http://www.w3.org/1999/xlink" width="490" zoomAndPan="magnify" viewBox="0 0 367.5 367.500003" height="490" preserveAspectRatio="xMidYMid meet" version="1.0"><defs><clipPath id="c30398ea9d"><path d="M 66.828125 82.421875 L 300.828125 82.421875 L 300.828125 264.671875 L 66.828125 264.671875 Z M 66.828125 82.421875 " clip-rule="nonzero"/></clipPath></defs><g clip-path="url(#c30398ea9d)"><path fill="#ee9a09" d="M 277.988281 114.207031 L 241.691406 114.207031 C 241.5 113.542969 241.121094 112.878906 240.835938 112.308594 C 238.367188 107.753906 236.464844 102.820312 235.230469 97.792969 C 234.089844 93.238281 233.140625 88.019531 229.433594 85.175781 C 226.394531 82.898438 222.214844 82.804688 218.414062 82.804688 C 205.585938 82.804688 192.761719 82.804688 179.839844 82.804688 C 169.671875 82.804688 159.410156 82.804688 149.246094 82.804688 C 147.15625 82.804688 144.496094 82.421875 142.5 82.898438 C 140.789062 83.371094 139.171875 84.605469 137.9375 85.839844 C 135.277344 88.402344 133.566406 91.910156 132.425781 95.328125 C 130.621094 100.828125 129.765625 106.804688 126.917969 111.835938 C 126.535156 112.59375 126.0625 113.351562 125.777344 114.109375 L 89.578125 114.109375 C 77.035156 114.109375 66.964844 124.261719 66.964844 136.691406 L 66.964844 242.09375 C 66.964844 254.617188 77.128906 264.671875 89.578125 264.671875 L 278.082031 264.671875 C 290.621094 264.671875 300.695312 254.523438 300.695312 242.09375 L 300.695312 136.878906 C 300.597656 124.355469 290.433594 114.207031 277.988281 114.207031 Z M 183.734375 247.785156 C 151.523438 247.785156 125.398438 221.695312 125.398438 189.535156 C 125.398438 157.371094 151.523438 131.28125 183.734375 131.28125 C 215.945312 131.28125 242.070312 157.371094 242.070312 189.535156 C 242.070312 221.695312 215.945312 247.785156 183.734375 247.785156 Z M 273.140625 150.066406 C 268.675781 150.066406 265.066406 146.460938 265.066406 142.003906 C 265.066406 137.542969 268.675781 133.9375 273.140625 133.9375 C 277.605469 133.9375 281.21875 137.542969 281.21875 142.003906 C 281.21875 146.460938 277.605469 150.066406 273.140625 150.066406 Z M 273.140625 150.066406 " fill-opacity="1" fill-rule="nonzero"/></g><path fill="#ee9a09" d="M 219.171875 189.535156 C 219.171875 190.695312 219.117188 191.851562 219.003906 193.003906 C 218.890625 194.15625 218.71875 195.300781 218.492188 196.4375 C 218.265625 197.574219 217.984375 198.699219 217.648438 199.808594 C 217.3125 200.917969 216.921875 202.007812 216.476562 203.078125 C 216.03125 204.148438 215.535156 205.195312 214.988281 206.214844 C 214.441406 207.238281 213.847656 208.230469 213.199219 209.195312 C 212.554688 210.160156 211.867188 211.089844 211.128906 211.984375 C 210.394531 212.878906 209.613281 213.738281 208.792969 214.558594 C 207.972656 215.375 207.113281 216.152344 206.21875 216.890625 C 205.320312 217.625 204.386719 218.3125 203.421875 218.957031 C 202.457031 219.601562 201.464844 220.195312 200.441406 220.742188 C 199.417969 221.289062 198.367188 221.785156 197.296875 222.226562 C 196.222656 222.671875 195.132812 223.0625 194.023438 223.398438 C 192.910156 223.734375 191.785156 224.015625 190.648438 224.242188 C 189.507812 224.46875 188.363281 224.636719 187.207031 224.75 C 186.054688 224.863281 184.894531 224.921875 183.734375 224.921875 C 182.574219 224.921875 181.414062 224.863281 180.261719 224.75 C 179.105469 224.636719 177.957031 224.46875 176.820312 224.242188 C 175.683594 224.015625 174.558594 223.734375 173.445312 223.398438 C 172.335938 223.0625 171.246094 222.671875 170.171875 222.226562 C 169.101562 221.785156 168.050781 221.289062 167.027344 220.742188 C 166.003906 220.195312 165.011719 219.601562 164.046875 218.957031 C 163.078125 218.3125 162.148438 217.625 161.25 216.890625 C 160.355469 216.152344 159.496094 215.375 158.675781 214.558594 C 157.855469 213.738281 157.074219 212.878906 156.339844 211.984375 C 155.601562 211.089844 154.914062 210.160156 154.265625 209.195312 C 153.621094 208.230469 153.027344 207.238281 152.480469 206.214844 C 151.933594 205.195312 151.4375 204.148438 150.992188 203.078125 C 150.546875 202.007812 150.15625 200.914062 149.820312 199.808594 C 149.484375 198.699219 149.203125 197.574219 148.976562 196.4375 C 148.75 195.300781 148.578125 194.15625 148.464844 193.003906 C 148.351562 191.851562 148.292969 190.695312 148.292969 189.535156 C 148.292969 188.375 148.351562 187.21875 148.464844 186.066406 C 148.578125 184.914062 148.75 183.765625 148.976562 182.628906 C 149.203125 181.492188 149.484375 180.371094 149.820312 179.261719 C 150.15625 178.152344 150.546875 177.0625 150.992188 175.992188 C 151.4375 174.921875 151.933594 173.875 152.480469 172.851562 C 153.027344 171.832031 153.621094 170.839844 154.265625 169.875 C 154.914062 168.910156 155.601562 167.980469 156.339844 167.085938 C 157.074219 166.1875 157.855469 165.332031 158.675781 164.511719 C 159.496094 163.691406 160.355469 162.914062 161.25 162.179688 C 162.148438 161.445312 163.078125 160.753906 164.046875 160.109375 C 165.011719 159.46875 166.003906 158.871094 167.027344 158.324219 C 168.050781 157.777344 169.101562 157.285156 170.171875 156.839844 C 171.246094 156.398438 172.335938 156.007812 173.445312 155.671875 C 174.558594 155.335938 175.683594 155.054688 176.820312 154.828125 C 177.957031 154.601562 179.105469 154.429688 180.261719 154.316406 C 181.414062 154.203125 182.574219 154.148438 183.734375 154.148438 C 184.894531 154.148438 186.054688 154.203125 187.207031 154.316406 C 188.363281 154.429688 189.507812 154.601562 190.648438 154.828125 C 191.785156 155.054688 192.910156 155.335938 194.023438 155.671875 C 195.132812 156.007812 196.222656 156.398438 197.296875 156.839844 C 198.367188 157.285156 199.417969 157.777344 200.441406 158.324219 C 201.464844 158.871094 202.457031 159.46875 203.421875 160.109375 C 204.386719 160.753906 205.320312 161.445312 206.21875 162.179688 C 207.113281 162.914062 207.972656 163.691406 208.792969 164.511719 C 209.613281 165.332031 210.394531 166.1875 211.128906 167.085938 C 211.867188 167.980469 212.554688 168.910156 213.199219 169.875 C 213.847656 170.839844 214.441406 171.832031 214.988281 172.851562 C 215.535156 173.875 216.03125 174.921875 216.476562 175.992188 C 216.921875 177.0625 217.3125 178.152344 217.648438 179.261719 C 217.984375 180.371094 218.265625 181.492188 218.492188 182.628906 C 218.71875 183.765625 218.890625 184.914062 219.003906 186.066406 C 219.117188 187.21875 219.171875 188.375 219.171875 189.535156 Z M 219.171875 189.535156 " fill-opacity="1" fill-rule="nonzero"/></svg>