<svg xmlns="http://www.w3.org/2000/svg" xmlns:xlink="http://www.w3.org/1999/xlink" width="40" zoomAndPan="magnify" viewBox="0 0 30 30.000001" height="40" preserveAspectRatio="xMidYMid meet" version="1.0"><defs><clipPath id="62842e08ca"><path d="M 0.484375 0 L 29.515625 0 L 29.515625 29.03125 L 0.484375 29.03125 Z M 0.484375 0 " clip-rule="nonzero"/></clipPath></defs><g clip-path="url(#62842e08ca)"><path fill="#35c42c" d="M 29.515625 2.53125 C 29.515625 1.132812 28.382812 0 26.984375 0 L 3.015625 0 C 1.617188 0 0.484375 1.132812 0.484375 2.53125 L 0.484375 26.5 C 0.484375 27.898438 1.617188 29.03125 3.015625 29.03125 L 26.984375 29.03125 C 28.382812 29.03125 29.515625 27.898438 29.515625 26.5 Z M 29.515625 2.53125 " fill-opacity="1" fill-rule="evenodd"/></g><path fill="#ffffff" d="M 6.433594 23.277344 L 7.28125 20.308594 C 6.066406 18.691406 5.347656 16.6875 5.347656 14.515625 C 5.347656 9.191406 9.671875 4.867188 15 4.867188 C 20.328125 4.867188 24.652344 9.191406 24.652344 14.515625 C 24.652344 19.84375 20.328125 24.167969 15 24.167969 C 12.925781 24.167969 11.121094 23.316406 9.429688 22.394531 Z M 5.570312 20.933594 L 4.046875 25.664062 L 8.835938 24.113281 C 10.613281 25.257812 12.730469 25.921875 15 25.921875 C 21.292969 25.921875 26.40625 20.8125 26.40625 14.515625 C 26.40625 8.222656 21.292969 3.109375 15 3.109375 C 8.707031 3.109375 3.59375 8.222656 3.59375 14.515625 C 3.59375 16.894531 4.324219 19.105469 5.570312 20.933594 Z M 5.570312 20.933594 " fill-opacity="1" fill-rule="evenodd"/><path fill="#ffffff" d="M 10.761719 9.589844 C 9.761719 10.589844 9.570312 12.140625 10.292969 13.359375 C 10.820312 14.230469 11.644531 15.332031 12.941406 16.632812 C 14.210938 17.898438 15.28125 18.707031 16.136719 19.222656 C 17.351562 19.953125 18.910156 19.761719 19.914062 18.757812 C 19.976562 18.699219 20.039062 18.636719 20.101562 18.578125 C 20.507812 18.167969 20.507812 17.507812 20.101562 17.101562 C 19.8125 16.8125 19.488281 16.488281 19.203125 16.203125 C 19.007812 16.007812 18.738281 15.894531 18.460938 15.894531 C 18.1875 15.894531 17.917969 16.007812 17.722656 16.203125 C 17.585938 16.339844 17.480469 16.445312 17.480469 16.445312 C 17.480469 16.445312 16.230469 16.546875 14.828125 15.140625 C 13.425781 13.738281 13.070312 12.03125 13.070312 12.03125 C 13.070312 12.03125 13.171875 11.929688 13.3125 11.789062 C 13.507812 11.59375 13.617188 11.328125 13.617188 11.050781 C 13.617188 10.773438 13.507812 10.507812 13.3125 10.3125 C 13.027344 10.027344 12.699219 9.699219 12.414062 9.414062 C 12.007812 9.007812 11.34375 9.007812 10.9375 9.414062 C 10.878906 9.472656 10.820312 9.527344 10.761719 9.589844 Z M 10.761719 9.589844 " fill-opacity="1" fill-rule="evenodd"/></svg>